<svg width="58" height="48" viewBox="0 0 58 48" fill="none" xmlns="http://www.w3.org/2000/svg">
<path id="Vector" d="M26.5726 41.0022C26.6649 41.1014 26.7462 41.2078 26.8184 41.3225C26.8897 41.4371 26.95 41.5572 26.9984 41.6827C27.0469 41.8083 27.0834 41.9375 27.1072 42.0703C27.1309 42.2031 27.1428 42.3369 27.141 42.4715C27.1401 42.6062 27.1255 42.739 27.099 42.8718C27.0715 43.0038 27.0322 43.132 26.9811 43.2567C26.9299 43.3813 26.8668 43.4996 26.7928 43.6124C26.7188 43.7252 26.6347 43.8308 26.5406 43.9272C25.847 44.6887 25.1142 45.4093 24.3411 46.0898C23.9682 46.3527 23.568 46.5611 23.1385 46.7148C22.9164 46.7339 22.6962 46.7212 22.4778 46.6757C22.2603 46.6302 22.0529 46.5538 21.8573 46.4483C21.6618 46.3418 21.4854 46.2099 21.3291 46.0516C21.1729 45.8942 21.0431 45.7168 20.9389 45.5212C20.8357 45.3501 20.7607 45.1673 20.715 44.9726C20.6694 44.7779 20.6547 44.5804 20.6712 44.3821C20.6876 44.1829 20.7342 43.9909 20.811 43.8062C20.8887 43.6215 20.9919 43.4532 21.1217 43.3013C21.9057 42.396 22.7519 41.5526 23.6594 40.7702C23.7626 40.6829 23.8732 40.6064 23.992 40.54C24.1099 40.4745 24.2341 40.4208 24.363 40.379C24.4928 40.3371 24.6243 40.3089 24.7596 40.2926C24.8939 40.2771 25.0292 40.2744 25.1644 40.2853C25.2997 40.2962 25.4331 40.3199 25.5628 40.3572C25.6935 40.3936 25.8196 40.4427 25.9402 40.5045C26.0609 40.5664 26.1751 40.6383 26.2811 40.7229C26.388 40.8066 26.4849 40.8994 26.5726 41.0022ZM12.5117 27.2533C12.4194 27.0559 12.3006 26.8749 12.1572 26.7093C12.0146 26.5446 11.8511 26.4027 11.6674 26.2835C11.4846 26.1634 11.2881 26.0715 11.0789 26.006C10.8696 25.9414 10.6558 25.9059 10.4365 25.9005C9.96951 26.0588 9.53179 26.2735 9.1224 26.5473C8.31185 27.2579 7.54698 28.0148 6.82781 28.8164C6.73095 28.9155 6.64505 29.0229 6.57103 29.1393C6.4961 29.2558 6.43304 29.3786 6.3837 29.5069C6.33344 29.6352 6.29597 29.768 6.27313 29.9036C6.24937 30.04 6.23932 30.1765 6.24389 30.3148C6.24754 30.4522 6.2649 30.5887 6.29689 30.7233C6.32796 30.857 6.37273 30.9871 6.4303 31.1127C6.48787 31.2382 6.55732 31.3574 6.63865 31.4684C6.71998 31.5803 6.81136 31.6831 6.91371 31.7768C7.00875 31.8724 7.11292 31.9588 7.22532 32.0352C7.33681 32.1117 7.4556 32.1772 7.57988 32.2308C7.70507 32.2836 7.83301 32.3255 7.96643 32.3546C8.09893 32.3837 8.23326 32.3992 8.3685 32.4028C8.50466 32.4055 8.63899 32.3964 8.77332 32.3737C8.90674 32.3509 9.03742 32.3154 9.16444 32.2681C9.29146 32.2199 9.41299 32.1608 9.52905 32.0898C9.64419 32.0189 9.75202 31.9379 9.85162 31.846C10.6713 31.11 11.4508 30.333 12.1892 29.5169C12.3345 29.3704 12.4523 29.2039 12.5437 29.0192C12.6351 28.8355 12.6954 28.6408 12.7247 28.437C12.7539 28.2332 12.7502 28.0303 12.7137 27.8274C12.6771 27.6245 12.6095 27.4326 12.5117 27.2515V27.2533ZM16.8396 31.3438C16.7381 31.251 16.6276 31.1682 16.5106 31.0954C16.3927 31.0235 16.2693 30.9626 16.1396 30.9135C16.0107 30.8643 15.8782 30.8279 15.7412 30.8034C15.605 30.7797 15.4679 30.7679 15.3299 30.7697C15.191 30.7715 15.054 30.7852 14.9187 30.8125C14.7835 30.8398 14.651 30.8798 14.523 30.9316C14.3951 30.9835 14.2727 31.0472 14.1566 31.1218C14.0405 31.1973 13.9327 31.2819 13.8331 31.3774C13.0701 32.068 12.3463 32.7967 11.6628 33.5646C11.4106 33.9121 11.2123 34.2879 11.067 34.6909C11.0405 34.9175 11.0496 35.1431 11.0935 35.3669C11.1374 35.5907 11.2141 35.8027 11.3238 36.0038C11.4334 36.2039 11.5705 36.3832 11.7359 36.5406C11.9022 36.6989 12.0877 36.8281 12.2933 36.929C12.4798 37.0309 12.6781 37.101 12.8864 37.1401C13.0957 37.1792 13.3058 37.1847 13.5169 37.1583C13.728 37.131 13.9291 37.0728 14.1219 36.9827C14.3138 36.8926 14.4874 36.7753 14.6428 36.6297C15.4423 35.911 16.2136 35.1577 16.9401 34.3643C17.0397 34.2633 17.1274 34.1542 17.2051 34.035C17.2818 33.9167 17.3467 33.7911 17.3979 33.6592C17.45 33.5282 17.4875 33.3927 17.5112 33.2535C17.535 33.1133 17.545 32.9732 17.5405 32.8322C17.5359 32.6912 17.5167 32.5511 17.4838 32.4137C17.4509 32.2763 17.4043 32.1435 17.344 32.0161C17.2837 31.8878 17.2115 31.7668 17.1265 31.6531C17.0415 31.5403 16.9456 31.4366 16.8396 31.342V31.3438ZM22.3599 37.9844C22.2749 36.8126 21.9003 36.1093 21.0422 35.7254C20.8457 35.6298 20.6392 35.5671 20.4226 35.538C20.2061 35.5079 19.9904 35.5116 19.7756 35.5498C19.56 35.588 19.3562 35.659 19.1643 35.7618C18.9715 35.8646 18.7997 35.9947 18.6489 36.1521C17.9261 36.8144 17.2352 37.5159 16.5572 38.2219C16.4521 38.3201 16.358 38.4284 16.2739 38.5458C16.1908 38.6631 16.1204 38.7878 16.0619 38.9188C16.0034 39.0507 15.9586 39.1862 15.9276 39.3273C15.8974 39.4674 15.881 39.6093 15.8782 39.7531C15.8764 39.8968 15.8883 40.0396 15.9148 40.1807C15.9413 40.3226 15.9815 40.4591 16.0363 40.5928C16.0902 40.7256 16.1569 40.853 16.2374 40.9722C16.3169 41.0923 16.4082 41.2033 16.5097 41.3052C16.6129 41.4062 16.7244 41.4962 16.846 41.5754C16.9666 41.6545 17.0936 41.721 17.2279 41.7755C17.3623 41.8292 17.5002 41.8692 17.6428 41.8965C17.7844 41.9229 17.9279 41.9357 18.0732 41.9338C18.2176 41.932 18.3601 41.9166 18.5018 41.8865C18.6434 41.8565 18.7805 41.8128 18.9139 41.7564C19.0464 41.6991 19.1725 41.63 19.2913 41.5481C19.4101 41.4662 19.5207 41.3734 19.6203 41.2697C20.334 40.6292 21.0093 39.9523 21.649 39.239C21.935 38.8469 22.1717 38.4284 22.3599 37.9817V37.9844ZM54.7802 7.0094C54.348 6.38801 53.8682 5.80482 53.3419 5.25986C52.8192 4.69942 52.2563 4.18265 51.6541 3.70865C50.8682 3.10454 50.022 2.5996 49.1164 2.19383C47.8937 1.62521 46.6272 1.18578 45.314 0.875535C44.0018 0.566204 42.6713 0.391523 41.3225 0.353311C39.9508 0.386974 38.603 0.581671 37.2779 0.935582C35.9529 1.2904 34.6891 1.79625 33.4856 2.45131C31.5483 3.59401 29.8303 4.99965 28.3299 6.67004C26.0618 8.9409 23.7599 11.1808 21.4954 13.4544C21.4196 13.5254 21.3474 13.5991 21.2798 13.6773C21.2113 13.7556 21.1482 13.8374 21.0897 13.923C21.0303 14.0076 20.9764 14.0958 20.928 14.1877C20.8786 14.2787 20.8357 14.3724 20.7973 14.4679C20.758 14.5644 20.7251 14.6617 20.6977 14.7618C20.6703 14.861 20.6483 14.9619 20.6319 15.0648C20.6164 15.1667 20.6054 15.2695 20.6008 15.3723C20.5963 15.476 20.5972 15.5788 20.6036 15.6816C20.6109 15.7853 20.6237 15.8872 20.6419 15.9891C20.6602 16.091 20.684 16.1911 20.7132 16.2903C20.7425 16.3894 20.7781 16.4868 20.8183 16.5823C20.8585 16.6769 20.9042 16.7697 20.9545 16.8607C21.0056 16.9508 21.0614 17.0372 21.1217 17.1218C21.182 17.2055 21.2469 17.2865 21.3163 17.3629C21.3858 17.4402 21.4598 17.513 21.5375 17.5813C21.6152 17.6504 21.6965 17.7141 21.7806 17.7741C21.9121 17.8697 22.0501 17.9543 22.1963 18.0262C22.3416 18.0971 22.4933 18.1563 22.6487 18.2017C22.8049 18.2472 22.9639 18.2782 23.1257 18.2955C23.2874 18.3136 23.4501 18.3164 23.6118 18.3055C23.7745 18.2945 23.9344 18.27 24.0925 18.2309C24.2506 18.1926 24.4041 18.1399 24.5522 18.0744C24.7011 18.0089 24.8427 17.9306 24.978 17.8396C25.1123 17.7496 25.2384 17.6477 25.3554 17.5349C26.4136 16.5459 31.7548 11.3728 33.2891 9.83887C41.3435 17.7723 47.2376 23.6296 48.6568 25.0771C49.6428 26.0824 50.552 27.0232 50.552 27.0232C51.1871 27.6864 51.8332 28.3651 52.5094 29.0666C52.9672 28.4925 53.4762 27.9193 53.9715 27.3225C54.4704 26.7229 54.9347 26.0979 55.3651 25.4483C56.0952 24.291 56.68 23.0655 57.1196 21.7718C57.56 20.479 57.8424 19.1516 57.9694 17.7923C58.0608 16.3039 57.9475 14.8309 57.6268 13.3744C57.3069 11.9178 56.7924 10.5321 56.0842 9.21839C55.6977 8.45325 55.2636 7.71722 54.7802 7.0094ZM33.2864 13.2406C31.0594 15.3941 27.6089 18.7567 26.7481 19.5082C26.6247 19.6101 26.4968 19.7065 26.3642 19.7975C26.2317 19.8876 26.0956 19.9722 25.9549 20.0505C25.815 20.1278 25.6716 20.1997 25.5245 20.2643C25.3773 20.3298 25.2284 20.3871 25.0758 20.4389C24.9241 20.4899 24.7696 20.5345 24.6134 20.5718C24.4571 20.6091 24.299 20.6391 24.14 20.6618C23.981 20.6846 23.8211 20.7001 23.6612 20.7082C23.5004 20.7164 23.3404 20.7173 23.1796 20.711C23.0188 20.7037 22.8589 20.69 22.6999 20.6691C22.5408 20.6482 22.3828 20.62 22.2256 20.5845C22.0693 20.549 21.9149 20.5063 21.7614 20.4571C21.6088 20.4071 21.4589 20.3507 21.3118 20.287C21.1637 20.2242 21.0193 20.1542 20.8786 20.0777C20.7379 20.0013 20.5999 19.9185 20.4665 19.8294C20.3331 19.7402 20.2042 19.6456 20.0799 19.5446C19.9548 19.4436 19.835 19.3372 19.7208 19.2253C19.6057 19.1143 19.496 18.9969 19.3918 18.8759C19.2877 18.754 19.189 18.6275 19.0967 18.4965C19.0044 18.3655 18.9185 18.2309 18.8381 18.0926C18.7586 17.9534 18.6855 17.8114 18.6188 17.6659C18.553 17.5203 18.4936 17.372 18.4406 17.221C18.3876 17.07 18.3428 16.9171 18.3044 16.7615C18.266 16.606 18.235 16.4495 18.2112 16.2912C18.1874 16.1329 18.1719 15.9746 18.1628 15.8144C18.1545 15.6552 18.1527 15.4951 18.1591 15.3359C18.1655 15.1758 18.1783 15.0165 18.2002 14.8582C18.2212 14.6999 18.2496 14.5425 18.2852 14.387C18.3209 14.2314 18.3638 14.0767 18.4141 13.9257C18.4643 13.7738 18.521 13.6245 18.5849 13.4772C18.6489 13.3307 18.7202 13.1878 18.7979 13.0477C18.8755 12.9076 18.9587 12.7712 19.0492 12.6392C19.1396 12.5064 19.2356 12.379 19.3379 12.2553C20.0169 11.4529 20.7882 10.7277 21.5375 9.98262C23.398 8.12481 25.2704 6.27155 27.183 4.37462C26.6622 3.90789 26.112 3.47756 25.5336 3.08362C24.9551 2.68967 24.3539 2.33485 23.7279 2.02006C23.1028 1.70527 22.4586 1.43233 21.797 1.20215C21.1354 0.971974 20.461 0.786375 19.7747 0.644447C19.0885 0.502518 18.3958 0.406989 17.6958 0.35604C16.9967 0.305092 16.2977 0.301452 15.5977 0.342393C14.8977 0.384244 14.2032 0.471585 13.5151 0.604416C12.827 0.736336 12.1508 0.913747 11.4855 1.13574C4.78452 3.40023 0.898071 8.15938 0.108536 15.1712C0.0418272 15.7335 0.0052745 16.2975 0.00070549 16.8634C-0.00477728 17.4293 0.0217234 17.9943 0.0792935 18.5575C0.136864 19.1206 0.225504 19.6783 0.3443 20.2324C0.464009 20.7856 0.612961 21.3305 0.792983 21.8682C0.97209 22.405 1.18135 22.9309 1.41895 23.4449C1.65654 23.9599 1.92246 24.4593 2.21579 24.9443C2.50821 25.4301 2.82713 25.8977 3.17255 26.3481C3.51706 26.7984 3.88624 27.2288 4.27827 27.6382C5.36754 26.6492 6.36634 25.7176 7.38798 24.8151C7.51957 24.6904 7.65847 24.5731 7.80377 24.4648C7.94998 24.3565 8.10167 24.2565 8.25976 24.1664C8.41694 24.0763 8.57959 23.9953 8.74774 23.9244C8.91496 23.8534 9.08676 23.7925 9.2613 23.7415C9.43584 23.6915 9.61312 23.6505 9.79314 23.6214C9.97316 23.5923 10.1541 23.5732 10.3359 23.565C10.5178 23.5577 10.6996 23.5605 10.8806 23.5741C11.0624 23.5878 11.2424 23.6123 11.4216 23.6469C11.5998 23.6824 11.7761 23.7279 11.9488 23.7843C12.1225 23.8398 12.2915 23.9062 12.4569 23.9826C12.6223 24.059 12.7822 24.1445 12.9367 24.2401C13.092 24.3356 13.24 24.4393 13.3826 24.553C13.5252 24.6659 13.6604 24.7869 13.7874 24.9161C13.9154 25.0452 14.0351 25.1817 14.1466 25.3246C14.2571 25.4683 14.3595 25.6175 14.4536 25.7731C14.5468 25.9287 14.63 26.0897 14.704 26.2553C14.9598 26.9194 15.1554 27.6 15.2925 28.2987C18.1829 28.5507 19.7583 30.1601 20.0169 33.0578C22.9813 33.3244 24.5814 34.9184 24.819 37.8079C24.9031 37.8361 24.989 37.8561 25.0767 37.868C25.2521 37.8734 25.4276 37.888 25.6012 37.9125C25.7758 37.9371 25.9485 37.9717 26.1184 38.0163C26.2884 38.0599 26.4556 38.1136 26.6201 38.1773C26.7846 38.2401 26.9445 38.3128 27.0999 38.3938C27.2561 38.4748 27.4069 38.5649 27.5522 38.6631C27.6975 38.7614 27.8373 38.8678 27.9707 38.9825C28.1042 39.0962 28.2303 39.2172 28.35 39.3464C28.4697 39.4747 28.5812 39.6093 28.6853 39.7503C28.7895 39.8913 28.8855 40.0387 28.9723 40.1907C29.06 40.3426 29.1377 40.4991 29.2071 40.6601C29.2766 40.8202 29.3369 40.9849 29.3871 41.1523C29.4374 41.3197 29.4785 41.4899 29.5096 41.6627C29.5407 41.8347 29.5617 42.0084 29.5727 42.1831C29.5845 42.3578 29.5854 42.5325 29.5763 42.7072C29.5681 42.8819 29.5489 43.0556 29.5206 43.2285C29.4913 43.4013 29.4529 43.5715 29.4045 43.7398C29.3588 43.9509 29.4018 44.141 29.5334 44.313C30.3887 45.1846 31.2422 46.0634 32.1587 46.8695C32.251 46.9423 32.3488 47.006 32.4512 47.0624C32.5544 47.1188 32.6623 47.1652 32.7728 47.2034C32.8843 47.2407 32.9976 47.2689 33.1137 47.288C33.2297 47.3062 33.3467 47.3153 33.4646 47.3144C33.5816 47.3126 33.6985 47.3017 33.8137 47.2807C33.9297 47.2598 34.0421 47.2298 34.1527 47.1898C34.2633 47.1497 34.3693 47.1006 34.4716 47.0424C34.573 46.9841 34.6699 46.9177 34.7604 46.844C34.8253 46.794 34.8865 46.7412 34.945 46.6857C35.0035 46.6293 35.0592 46.5702 35.1113 46.5074C35.1625 46.4455 35.2109 46.38 35.2557 46.3127C35.3004 46.2445 35.3406 46.1753 35.3772 46.1025C35.4138 46.0307 35.4467 45.9561 35.475 45.8806C35.5033 45.8041 35.5271 45.7268 35.5463 45.6486C35.5654 45.5703 35.581 45.4902 35.591 45.4102C35.602 45.3301 35.6084 45.2491 35.6093 45.1682C35.6111 45.0881 35.6075 45.0071 35.6002 44.9262C35.5919 44.8461 35.5801 44.766 35.5636 44.6869C35.5463 44.6077 35.5252 44.5295 35.4997 44.4522C35.4741 44.3757 35.4448 44.3002 35.4101 44.2274C35.3763 44.1538 35.3379 44.0819 35.2959 44.0127C35.2538 43.9436 35.2081 43.8772 35.1588 43.8126C35.1085 43.7489 35.0555 43.6879 34.9989 43.6297C34.9422 43.5715 34.8828 43.516 34.8198 43.465C32.6632 41.3179 30.4956 39.1826 28.3399 37.0337C28.244 36.9381 28.1581 36.8335 28.0813 36.7216L24.3319 32.9923C24.278 32.9378 24.2314 32.8777 24.1894 32.814C24.1482 32.7503 24.1135 32.683 24.0852 32.612C24.056 32.542 24.0349 32.4692 24.0212 32.3937C24.0066 32.3191 24.0002 32.2436 24.0011 32.1681C24.0011 32.0916 24.0093 32.0161 24.0249 31.9415C24.0404 31.8669 24.0633 31.795 24.0925 31.725C24.1217 31.6549 24.1583 31.5876 24.2013 31.5248C24.2433 31.4621 24.2917 31.4029 24.3456 31.3492C24.4005 31.2956 24.4589 31.2473 24.522 31.2055C24.586 31.1627 24.6527 31.1263 24.724 31.0972C24.7943 31.0681 24.8665 31.0454 24.9414 31.0299C25.0164 31.0144 25.0922 31.0072 25.169 31.0063C25.2457 31.0053 25.3216 31.0126 25.3965 31.0263C25.4715 31.0399 25.5446 31.0617 25.6158 31.09C25.6871 31.1182 25.7547 31.1527 25.8187 31.1937C25.8827 31.2355 25.943 31.2819 25.9978 31.3347L29.7682 35.0849C29.8706 35.1558 29.9665 35.2341 30.057 35.3196C30.735 35.961 31.4176 36.5988 32.0838 37.2529C33.6391 38.7814 35.1716 40.3335 36.7434 41.8456C36.8484 41.9529 36.9636 42.0494 37.0888 42.1322C37.214 42.2159 37.3465 42.2859 37.4872 42.3423C37.627 42.3978 37.7714 42.4388 37.9203 42.4652C38.0684 42.4906 38.2183 42.5006 38.369 42.4952C38.5207 42.4897 38.6688 42.4688 38.8159 42.4324C38.9621 42.396 39.1028 42.3451 39.239 42.2787C39.3742 42.2132 39.5012 42.134 39.62 42.0412C39.7388 41.9484 39.8476 41.8447 39.9444 41.73C40.034 41.6209 40.1117 41.5044 40.1784 41.3798C40.246 41.256 40.2999 41.1269 40.342 40.9922C40.384 40.8585 40.4132 40.7211 40.4288 40.581C40.4443 40.4409 40.447 40.3008 40.4352 40.1606C40.4242 40.0205 40.3995 39.8822 40.3621 39.7467C40.3237 39.6111 40.2734 39.4801 40.2104 39.3546C40.1473 39.2281 40.0733 39.1098 39.9874 38.9979C39.9015 38.886 39.8055 38.7832 39.6995 38.6895C37.5 36.4869 35.2785 34.2997 33.068 32.1035C32.0135 31.0572 30.947 30.0237 29.9199 28.9492C29.8623 28.8964 29.8102 28.8382 29.7636 28.7745C29.7179 28.7108 29.6796 28.6435 29.6476 28.5716C29.6156 28.4998 29.5909 28.4261 29.5745 28.3496C29.558 28.2723 29.5489 28.195 29.5489 28.1167C29.548 28.0385 29.5553 27.9612 29.5708 27.8838C29.5864 27.8074 29.6092 27.7328 29.6403 27.6609C29.6713 27.589 29.7088 27.5208 29.7545 27.4562C29.7993 27.3916 29.8505 27.3325 29.9071 27.2788C29.9629 27.2242 30.0232 27.1742 30.088 27.1305C30.1529 27.0868 30.2224 27.0495 30.2946 27.0195C30.3668 26.9886 30.4408 26.9658 30.5175 26.9495C30.5952 26.9331 30.672 26.924 30.7506 26.9231C30.8291 26.9222 30.9077 26.9285 30.9845 26.9422C31.0622 26.9558 31.1371 26.9768 31.2102 27.005C31.2833 27.0332 31.3537 27.0677 31.4204 27.1096C31.4862 27.1505 31.5483 27.1978 31.6059 27.2515C31.753 27.3734 31.8919 27.5035 32.0235 27.6427C35.157 30.7442 38.2822 33.8548 41.433 36.939C41.7766 37.2757 42.1805 37.5104 42.6457 37.6414C42.7572 37.6696 42.8696 37.6887 42.9838 37.6987C43.098 37.7078 43.2122 37.7087 43.3265 37.6996C43.4416 37.6905 43.554 37.6714 43.6655 37.6441C43.777 37.6168 43.8848 37.5795 43.9899 37.5341C44.0959 37.4886 44.1964 37.4349 44.2924 37.373C44.3892 37.3112 44.4797 37.242 44.5647 37.1647C44.6488 37.0883 44.7273 37.0046 44.7977 36.9154C44.869 36.8253 44.932 36.7307 44.9869 36.6306C45.0454 36.5296 45.0947 36.4241 45.1349 36.314C45.176 36.2048 45.2071 36.0929 45.2299 35.9783C45.2519 35.8637 45.2647 35.7472 45.2683 35.6308C45.2711 35.5143 45.2647 35.3979 45.2491 35.2823C45.2327 35.1668 45.208 35.053 45.1733 34.9411C45.1386 34.8301 45.0947 34.7219 45.0426 34.6172C44.9905 34.5126 44.9302 34.4134 44.8608 34.3188C44.7922 34.2233 44.7164 34.135 44.6332 34.0532C42.2326 31.6431 39.811 29.2512 37.3976 26.8539C36.5332 25.9951 35.6477 25.1481 34.7978 24.271C34.7357 24.2173 34.68 24.1591 34.6297 24.0945C34.5785 24.0308 34.5356 23.9617 34.499 23.8889C34.4625 23.8161 34.4332 23.7406 34.4122 23.6614C34.3912 23.5832 34.3784 23.5031 34.3729 23.4222C34.3684 23.3403 34.3711 23.2593 34.3821 23.1793C34.3939 23.0983 34.4131 23.02 34.4405 22.9427C34.467 22.8663 34.5018 22.7926 34.5438 22.7225C34.5858 22.6534 34.6343 22.5879 34.69 22.5278C34.7494 22.4687 34.8143 22.415 34.8847 22.3686C34.9559 22.3222 35.03 22.2831 35.1085 22.2513C35.1862 22.2194 35.2666 22.1958 35.3498 22.1803C35.4329 22.1648 35.517 22.1566 35.6011 22.1575C35.6861 22.1585 35.7692 22.1676 35.8524 22.1848C35.9346 22.2021 36.015 22.2276 36.0927 22.2613C36.1704 22.294 36.2444 22.335 36.3139 22.3823C36.3833 22.4305 36.4473 22.4842 36.5058 22.5451C36.6145 22.6379 36.7086 22.7489 36.811 22.8499C39.9234 25.9369 43.0386 29.0229 46.1566 32.108C46.3064 32.28 46.4773 32.4283 46.6701 32.5511C46.8629 32.6739 47.0695 32.7676 47.2897 32.8313C47.5099 32.8959 47.7347 32.9268 47.9641 32.9259C48.1925 32.9259 48.4173 32.8923 48.6366 32.8268L48.6979 32.8058C48.7856 32.7713 48.8706 32.7303 48.9537 32.6839C49.036 32.6375 49.1146 32.5866 49.1904 32.5302C49.2663 32.4738 49.3375 32.4128 49.4061 32.3473C49.4737 32.2809 49.5368 32.2117 49.5952 32.138C49.6546 32.0643 49.7076 31.987 49.757 31.906C49.8054 31.826 49.8484 31.7423 49.8867 31.6558C49.9242 31.5694 49.9562 31.4812 49.9827 31.3911C50.0092 31.301 50.0293 31.2091 50.0439 31.1163C50.0576 31.0226 50.0659 30.9298 50.0686 30.8352C50.0704 30.7415 50.0668 30.6478 50.0567 30.5541C50.0467 30.4604 50.0311 30.3676 50.0092 30.2766C49.9873 30.1847 49.9589 30.0955 49.9251 30.0073C49.8913 29.919 49.852 29.8344 49.8072 29.7507C49.7625 29.6679 49.7131 29.5888 49.6574 29.5124C49.6026 29.4359 49.5422 29.3632 49.4783 29.2949C49.4134 29.2258 49.3449 29.1612 49.2717 29.102C45.7463 25.5929 37.7878 17.6923 33.2864 13.2406Z" fill="#592A8B"/>
</svg>
