<svg width="69" height="58" viewBox="0 0 69 58" fill="none" xmlns="http://www.w3.org/2000/svg">
<g id="Group 39225">
<g id="Vector">
<path d="M18.2842 26.4466C18.2842 26.5959 18.2769 26.7452 18.2623 26.8945C18.2476 27.0428 18.2257 27.1911 18.1965 27.3383C18.1672 27.4845 18.1317 27.6297 18.0879 27.7727C18.044 27.9168 17.9939 28.0567 17.9365 28.1956C17.879 28.3335 17.8153 28.4692 17.7443 28.6008C17.6744 28.7334 17.5971 28.8608 17.5146 28.9861C17.4311 29.1104 17.3423 29.2304 17.2473 29.3464C17.1523 29.4623 17.052 29.5729 16.9455 29.6784C16.84 29.7839 16.7293 29.8852 16.6134 29.9791C16.4975 30.0742 16.3774 30.164 16.2532 30.2465C16.1289 30.33 16.0005 30.4073 15.8679 30.4772C15.7363 30.5482 15.6006 30.6119 15.4627 30.6694C15.3249 30.7268 15.1839 30.7769 15.0409 30.8208C14.8968 30.8636 14.7516 30.9001 14.6054 30.9294C14.4582 30.9586 14.3109 30.9805 14.1616 30.9952C14.0123 31.0098 13.863 31.0171 13.7137 31.0171C13.5633 31.0171 13.414 31.0098 13.2657 30.9952C13.1164 30.9805 12.9681 30.9586 12.8219 30.9294C12.6747 30.9001 12.5295 30.8636 12.3865 30.8208C12.2434 30.7769 12.1024 30.7268 11.9646 30.6694C11.8257 30.6119 11.691 30.5482 11.5584 30.4772C11.4268 30.4073 11.2984 30.33 11.1741 30.2465C11.0499 30.164 10.9298 30.0742 10.8139 29.9791C10.698 29.8852 10.5873 29.7839 10.4808 29.6784C10.3753 29.5729 10.2751 29.4623 10.18 29.3464C10.085 29.2304 9.99626 29.1104 9.91272 28.9861C9.82918 28.8608 9.75296 28.7334 9.68195 28.6008C9.61199 28.4692 9.54724 28.3335 9.48981 28.1956C9.43343 28.0567 9.38226 27.9168 9.33945 27.7727C9.29559 27.6297 9.25904 27.4845 9.2298 27.3383C9.20057 27.1911 9.17864 27.0428 9.16402 26.8945C9.1494 26.7452 9.14209 26.5959 9.14209 26.4466C9.14209 26.2962 9.1494 26.1469 9.16402 25.9986C9.17864 25.8493 9.20057 25.701 9.2298 25.5548C9.25904 25.4076 9.29559 25.2624 9.33945 25.1194C9.38226 24.9763 9.43343 24.8353 9.48981 24.6965C9.54724 24.5586 9.61199 24.4229 9.68195 24.2913C9.75296 24.1597 9.82918 24.0313 9.91272 23.907C9.99626 23.7817 10.085 23.6617 10.18 23.5457C10.2751 23.4309 10.3753 23.3202 10.4808 23.2137C10.5873 23.1082 10.698 23.008 10.8139 22.9129C10.9298 22.8179 11.0499 22.7281 11.1741 22.6456C11.2984 22.5621 11.4268 22.4859 11.5584 22.4149C11.691 22.3439 11.8257 22.2802 11.9646 22.2227C12.1024 22.1653 12.2434 22.1152 12.3865 22.0724C12.5295 22.0285 12.6747 21.992 12.8219 21.9627C12.9681 21.9335 13.1164 21.9115 13.2657 21.8969C13.414 21.8823 13.5633 21.875 13.7137 21.875C13.863 21.875 14.0123 21.8823 14.1616 21.8969C14.3109 21.9115 14.4582 21.9335 14.6054 21.9627C14.7516 21.992 14.8968 22.0285 15.0409 22.0724C15.1839 22.1152 15.3249 22.1653 15.4627 22.2227C15.6006 22.2802 15.7363 22.3439 15.8679 22.4149C16.0005 22.4859 16.1289 22.5621 16.2532 22.6456C16.3774 22.7281 16.4975 22.8179 16.6134 22.9129C16.7293 23.008 16.84 23.1082 16.9455 23.2137C17.052 23.3202 17.1523 23.4309 17.2473 23.5457C17.3423 23.6617 17.4311 23.7817 17.5146 23.907C17.5971 24.0313 17.6744 24.1597 17.7443 24.2913C17.8153 24.4229 17.879 24.5586 17.9365 24.6965C17.9939 24.8353 18.044 24.9763 18.0879 25.1194C18.1317 25.2624 18.1672 25.4076 18.1965 25.5548C18.2257 25.701 18.2476 25.8493 18.2623 25.9986C18.2769 26.1469 18.2842 26.2962 18.2842 26.4466Z" fill="#9546E8"/>
<path d="M18.2842 26.4466C18.2842 26.5959 18.2769 26.7452 18.2623 26.8945C18.2476 27.0428 18.2257 27.1911 18.1965 27.3383C18.1672 27.4845 18.1317 27.6297 18.0879 27.7727C18.044 27.9168 17.9939 28.0567 17.9365 28.1956C17.879 28.3335 17.8153 28.4692 17.7443 28.6008C17.6744 28.7334 17.5971 28.8608 17.5146 28.9861C17.4311 29.1104 17.3423 29.2304 17.2473 29.3464C17.1523 29.4623 17.052 29.5729 16.9455 29.6784C16.84 29.7839 16.7293 29.8852 16.6134 29.9791C16.4975 30.0742 16.3774 30.164 16.2532 30.2465C16.1289 30.33 16.0005 30.4073 15.8679 30.4772C15.7363 30.5482 15.6006 30.6119 15.4627 30.6694C15.3249 30.7268 15.1839 30.7769 15.0409 30.8208C14.8968 30.8636 14.7516 30.9001 14.6054 30.9294C14.4582 30.9586 14.3109 30.9805 14.1616 30.9952C14.0123 31.0098 13.863 31.0171 13.7137 31.0171C13.5633 31.0171 13.414 31.0098 13.2657 30.9952C13.1164 30.9805 12.9681 30.9586 12.8219 30.9294C12.6747 30.9001 12.5295 30.8636 12.3865 30.8208C12.2434 30.7769 12.1024 30.7268 11.9646 30.6694C11.8257 30.6119 11.691 30.5482 11.5584 30.4772C11.4268 30.4073 11.2984 30.33 11.1741 30.2465C11.0499 30.164 10.9298 30.0742 10.8139 29.9791C10.698 29.8852 10.5873 29.7839 10.4808 29.6784C10.3753 29.5729 10.2751 29.4623 10.18 29.3464C10.085 29.2304 9.99626 29.1104 9.91272 28.9861C9.82918 28.8608 9.75296 28.7334 9.68195 28.6008C9.61199 28.4692 9.54724 28.3335 9.48981 28.1956C9.43343 28.0567 9.38226 27.9168 9.33945 27.7727C9.29559 27.6297 9.25904 27.4845 9.2298 27.3383C9.20057 27.1911 9.17864 27.0428 9.16402 26.8945C9.1494 26.7452 9.14209 26.5959 9.14209 26.4466C9.14209 26.2962 9.1494 26.1469 9.16402 25.9986C9.17864 25.8493 9.20057 25.701 9.2298 25.5548C9.25904 25.4076 9.29559 25.2624 9.33945 25.1194C9.38226 24.9763 9.43343 24.8353 9.48981 24.6965C9.54724 24.5586 9.61199 24.4229 9.68195 24.2913C9.75296 24.1597 9.82918 24.0313 9.91272 23.907C9.99626 23.7817 10.085 23.6617 10.18 23.5457C10.2751 23.4309 10.3753 23.3202 10.4808 23.2137C10.5873 23.1082 10.698 23.008 10.8139 22.9129C10.9298 22.8179 11.0499 22.7281 11.1741 22.6456C11.2984 22.5621 11.4268 22.4859 11.5584 22.4149C11.691 22.3439 11.8257 22.2802 11.9646 22.2227C12.1024 22.1653 12.2434 22.1152 12.3865 22.0724C12.5295 22.0285 12.6747 21.992 12.8219 21.9627C12.9681 21.9335 13.1164 21.9115 13.2657 21.8969C13.414 21.8823 13.5633 21.875 13.7137 21.875C13.863 21.875 14.0123 21.8823 14.1616 21.8969C14.3109 21.9115 14.4582 21.9335 14.6054 21.9627C14.7516 21.992 14.8968 22.0285 15.0409 22.0724C15.1839 22.1152 15.3249 22.1653 15.4627 22.2227C15.6006 22.2802 15.7363 22.3439 15.8679 22.4149C16.0005 22.4859 16.1289 22.5621 16.2532 22.6456C16.3774 22.7281 16.4975 22.8179 16.6134 22.9129C16.7293 23.008 16.84 23.1082 16.9455 23.2137C17.052 23.3202 17.1523 23.4309 17.2473 23.5457C17.3423 23.6617 17.4311 23.7817 17.5146 23.907C17.5971 24.0313 17.6744 24.1597 17.7443 24.2913C17.8153 24.4229 17.879 24.5586 17.9365 24.6965C17.9939 24.8353 18.044 24.9763 18.0879 25.1194C18.1317 25.2624 18.1672 25.4076 18.1965 25.5548C18.2257 25.701 18.2476 25.8493 18.2623 25.9986C18.2769 26.1469 18.2842 26.2962 18.2842 26.4466Z" fill="black" fill-opacity="0.4"/>
</g>
<g id="Vector_2">
<path d="M59.4252 26.4466C59.4252 26.5959 59.4179 26.7452 59.4032 26.8945C59.3886 27.0428 59.3667 27.1911 59.3375 27.3383C59.3082 27.4845 59.2717 27.6297 59.2278 27.7727C59.185 27.9168 59.1338 28.0567 59.0775 28.1956C59.02 28.3335 58.9553 28.4692 58.8853 28.6008C58.8143 28.7334 58.7381 28.8608 58.6545 28.9861C58.571 29.1104 58.4823 29.2304 58.3872 29.3464C58.2922 29.4623 58.192 29.5729 58.0865 29.6784C57.98 29.7839 57.8693 29.8852 57.7534 29.9791C57.6375 30.0742 57.5174 30.164 57.3931 30.2465C57.2689 30.33 57.1404 30.4073 57.0089 30.4772C56.8762 30.5482 56.7415 30.6119 56.6027 30.6694C56.4648 30.7268 56.3239 30.7769 56.1808 30.8208C56.0377 30.8636 55.8926 30.9001 55.7454 30.9294C55.5992 30.9586 55.4509 30.9805 55.3016 30.9952C55.1533 31.0098 55.004 31.0171 54.8536 31.0171C54.7043 31.0171 54.555 31.0098 54.4056 30.9952C54.2563 30.9805 54.1091 30.9586 53.9618 30.9294C53.8157 30.9001 53.6705 30.8636 53.5264 30.8208C53.3834 30.7769 53.2424 30.7268 53.1045 30.6694C52.9657 30.6119 52.831 30.5482 52.6994 30.4772C52.5668 30.4073 52.4383 30.33 52.3141 30.2465C52.1898 30.164 52.0697 30.0742 51.9538 29.9791C51.8379 29.8852 51.7272 29.7839 51.6218 29.6784C51.5153 29.5729 51.415 29.4623 51.32 29.3464C51.225 29.2304 51.1362 29.1104 51.0527 28.9861C50.9702 28.8608 50.8929 28.7334 50.8229 28.6008C50.7519 28.4692 50.6882 28.3335 50.6308 28.1956C50.5734 28.0567 50.5233 27.9168 50.4794 27.7727C50.4355 27.6297 50.4 27.4845 50.3708 27.3383C50.3416 27.1911 50.3196 27.0428 50.305 26.8945C50.2904 26.7452 50.2831 26.5959 50.2831 26.4466C50.2831 26.2962 50.2904 26.1469 50.305 25.9986C50.3196 25.8493 50.3416 25.701 50.3708 25.5548C50.4 25.4076 50.4355 25.2624 50.4794 25.1194C50.5233 24.9763 50.5734 24.8353 50.6308 24.6965C50.6882 24.5586 50.7519 24.4229 50.8229 24.2913C50.8929 24.1597 50.9702 24.0313 51.0527 23.907C51.1362 23.7817 51.225 23.6617 51.32 23.5457C51.415 23.4309 51.5153 23.3202 51.6218 23.2137C51.7272 23.1082 51.8379 23.008 51.9538 22.9129C52.0697 22.8179 52.1898 22.7281 52.3141 22.6456C52.4383 22.5621 52.5668 22.4859 52.6994 22.4149C52.831 22.3439 52.9657 22.2802 53.1045 22.2227C53.2424 22.1653 53.3834 22.1152 53.5264 22.0724C53.6705 22.0285 53.8157 21.992 53.9618 21.9627C54.1091 21.9335 54.2563 21.9115 54.4056 21.8969C54.555 21.8823 54.7043 21.875 54.8536 21.875C55.004 21.875 55.1533 21.8823 55.3016 21.8969C55.4509 21.9115 55.5992 21.9335 55.7454 21.9627C55.8926 21.992 56.0377 22.0285 56.1808 22.0724C56.3239 22.1152 56.4648 22.1653 56.6027 22.2227C56.7415 22.2802 56.8762 22.3439 57.0089 22.4149C57.1404 22.4859 57.2689 22.5621 57.3931 22.6456C57.5174 22.7281 57.6375 22.8179 57.7534 22.9129C57.8693 23.008 57.98 23.1082 58.0865 23.2137C58.192 23.3202 58.2922 23.4309 58.3872 23.5457C58.4823 23.6617 58.571 23.7817 58.6545 23.907C58.7381 24.0313 58.8143 24.1597 58.8853 24.2913C58.9553 24.4229 59.02 24.5586 59.0775 24.6965C59.1338 24.8353 59.185 24.9763 59.2278 25.1194C59.2717 25.2624 59.3082 25.4076 59.3375 25.5548C59.3667 25.701 59.3886 25.8493 59.4032 25.9986C59.4179 26.1469 59.4252 26.2962 59.4252 26.4466Z" fill="#9546E8"/>
<path d="M59.4252 26.4466C59.4252 26.5959 59.4179 26.7452 59.4032 26.8945C59.3886 27.0428 59.3667 27.1911 59.3375 27.3383C59.3082 27.4845 59.2717 27.6297 59.2278 27.7727C59.185 27.9168 59.1338 28.0567 59.0775 28.1956C59.02 28.3335 58.9553 28.4692 58.8853 28.6008C58.8143 28.7334 58.7381 28.8608 58.6545 28.9861C58.571 29.1104 58.4823 29.2304 58.3872 29.3464C58.2922 29.4623 58.192 29.5729 58.0865 29.6784C57.98 29.7839 57.8693 29.8852 57.7534 29.9791C57.6375 30.0742 57.5174 30.164 57.3931 30.2465C57.2689 30.33 57.1404 30.4073 57.0089 30.4772C56.8762 30.5482 56.7415 30.6119 56.6027 30.6694C56.4648 30.7268 56.3239 30.7769 56.1808 30.8208C56.0377 30.8636 55.8926 30.9001 55.7454 30.9294C55.5992 30.9586 55.4509 30.9805 55.3016 30.9952C55.1533 31.0098 55.004 31.0171 54.8536 31.0171C54.7043 31.0171 54.555 31.0098 54.4056 30.9952C54.2563 30.9805 54.1091 30.9586 53.9618 30.9294C53.8157 30.9001 53.6705 30.8636 53.5264 30.8208C53.3834 30.7769 53.2424 30.7268 53.1045 30.6694C52.9657 30.6119 52.831 30.5482 52.6994 30.4772C52.5668 30.4073 52.4383 30.33 52.3141 30.2465C52.1898 30.164 52.0697 30.0742 51.9538 29.9791C51.8379 29.8852 51.7272 29.7839 51.6218 29.6784C51.5153 29.5729 51.415 29.4623 51.32 29.3464C51.225 29.2304 51.1362 29.1104 51.0527 28.9861C50.9702 28.8608 50.8929 28.7334 50.8229 28.6008C50.7519 28.4692 50.6882 28.3335 50.6308 28.1956C50.5734 28.0567 50.5233 27.9168 50.4794 27.7727C50.4355 27.6297 50.4 27.4845 50.3708 27.3383C50.3416 27.1911 50.3196 27.0428 50.305 26.8945C50.2904 26.7452 50.2831 26.5959 50.2831 26.4466C50.2831 26.2962 50.2904 26.1469 50.305 25.9986C50.3196 25.8493 50.3416 25.701 50.3708 25.5548C50.4 25.4076 50.4355 25.2624 50.4794 25.1194C50.5233 24.9763 50.5734 24.8353 50.6308 24.6965C50.6882 24.5586 50.7519 24.4229 50.8229 24.2913C50.8929 24.1597 50.9702 24.0313 51.0527 23.907C51.1362 23.7817 51.225 23.6617 51.32 23.5457C51.415 23.4309 51.5153 23.3202 51.6218 23.2137C51.7272 23.1082 51.8379 23.008 51.9538 22.9129C52.0697 22.8179 52.1898 22.7281 52.3141 22.6456C52.4383 22.5621 52.5668 22.4859 52.6994 22.4149C52.831 22.3439 52.9657 22.2802 53.1045 22.2227C53.2424 22.1653 53.3834 22.1152 53.5264 22.0724C53.6705 22.0285 53.8157 21.992 53.9618 21.9627C54.1091 21.9335 54.2563 21.9115 54.4056 21.8969C54.555 21.8823 54.7043 21.875 54.8536 21.875C55.004 21.875 55.1533 21.8823 55.3016 21.8969C55.4509 21.9115 55.5992 21.9335 55.7454 21.9627C55.8926 21.992 56.0377 22.0285 56.1808 22.0724C56.3239 22.1152 56.4648 22.1653 56.6027 22.2227C56.7415 22.2802 56.8762 22.3439 57.0089 22.4149C57.1404 22.4859 57.2689 22.5621 57.3931 22.6456C57.5174 22.7281 57.6375 22.8179 57.7534 22.9129C57.8693 23.008 57.98 23.1082 58.0865 23.2137C58.192 23.3202 58.2922 23.4309 58.3872 23.5457C58.4823 23.6617 58.571 23.7817 58.6545 23.907C58.7381 24.0313 58.8143 24.1597 58.8853 24.2913C58.9553 24.4229 59.02 24.5586 59.0775 24.6965C59.1338 24.8353 59.185 24.9763 59.2278 25.1194C59.2717 25.2624 59.3082 25.4076 59.3375 25.5548C59.3667 25.701 59.3886 25.8493 59.4032 25.9986C59.4179 26.1469 59.4252 26.2962 59.4252 26.4466Z" fill="black" fill-opacity="0.4"/>
</g>
<g id="Clip path group">
<mask id="mask0_27_502" style="mask-type:luminance" maskUnits="userSpaceOnUse" x="41" y="33" width="28" height="25">
<g id="a35ebe44ac">
<g id="Vector_3">
<path d="M41.969 33.1211H68.5672V57.3134H41.969V33.1211Z" fill="white"/>
</g>
</g>
</mask>
<g mask="url(#mask0_27_502)">
<g id="Group">
<g id="Vector_4">
<path d="M64.5502 37.3198C61.9605 34.7281 58.5167 33.3027 54.8536 33.3027C49.2671 33.3027 44.2674 36.6849 42.1643 41.8005C45.0234 44.1062 46.8539 47.6356 46.8539 51.5869V57.3009H68.5673V47.0164C68.5673 43.3523 67.1398 39.9095 64.5502 37.3198Z" fill="#9546E8"/>
<path d="M64.5502 37.3198C61.9605 34.7281 58.5167 33.3027 54.8536 33.3027C49.2671 33.3027 44.2674 36.6849 42.1643 41.8005C45.0234 44.1062 46.8539 47.6356 46.8539 51.5869V57.3009H68.5673V47.0164C68.5673 43.3523 67.1398 39.9095 64.5502 37.3198Z" fill="black" fill-opacity="0.4"/>
</g>
</g>
</g>
</g>
<g id="Clip path group_2">
<mask id="mask1_27_502" style="mask-type:luminance" maskUnits="userSpaceOnUse" x="23" y="41" width="22" height="17">
<g id="780a9f97a1">
<g id="Vector_5">
<path d="M23.7914 41.1406H44.6422V57.3134H23.7914V41.1406Z" fill="white"/>
</g>
</g>
</mask>
<g mask="url(#mask1_27_502)">
<g id="Group_2">
<g id="Vector_6">
<path d="M34.2838 41.3027C28.6127 41.3027 23.9983 45.9161 23.9983 51.5872V57.3011H44.5693V51.5872C44.5693 45.9161 39.9549 41.3027 34.2838 41.3027Z" fill="#9546E8"/>
<path d="M34.2838 41.3027C28.6127 41.3027 23.9983 45.9161 23.9983 51.5872V57.3011H44.5693V51.5872C44.5693 45.9161 39.9549 41.3027 34.2838 41.3027Z" fill="black" fill-opacity="0.4"/>
</g>
</g>
</g>
</g>
<g id="Clip path group_3">
<mask id="mask2_27_502" style="mask-type:luminance" maskUnits="userSpaceOnUse" x="0" y="33" width="27" height="25">
<g id="d24fd77fc2">
<g id="Vector_7">
<path d="M0 33.1211H26.4646V57.3134H0V33.1211Z" fill="white"/>
</g>
</g>
</mask>
<g mask="url(#mask2_27_502)">
<g id="Group_3">
<g id="Vector_8">
<path d="M26.3998 41.8037C25.7138 40.1361 24.6904 38.5979 23.4102 37.3198C20.8206 34.7281 17.3757 33.3027 13.7137 33.3027C6.15251 33.3027 0 39.4532 0 47.0164V57.3009H21.7134V51.5869C21.7134 47.6377 23.5429 44.1093 26.3998 41.8037Z" fill="#9546E8"/>
<path d="M26.3998 41.8037C25.7138 40.1361 24.6904 38.5979 23.4102 37.3198C20.8206 34.7281 17.3757 33.3027 13.7137 33.3027C6.15251 33.3027 0 39.4532 0 47.0164V57.3009H21.7134V51.5869C21.7134 47.6377 23.5429 44.1093 26.3998 41.8037Z" fill="black" fill-opacity="0.4"/>
</g>
</g>
</g>
</g>
<g id="Vector_9">
<path d="M37.7118 35.5893C37.7118 35.8138 37.6899 36.0373 37.646 36.2576C37.6021 36.479 37.5374 36.693 37.4507 36.9008C37.3651 37.1086 37.2596 37.306 37.1343 37.4939C37.009 37.6808 36.867 37.8542 36.7083 38.0129C36.5485 38.1727 36.3752 38.3147 36.1883 38.44C36.0014 38.5643 35.804 38.6697 35.5952 38.7564C35.3874 38.842 35.1733 38.9078 34.953 38.9517C34.7316 38.9955 34.5092 39.0174 34.2836 39.0174C34.0581 39.0174 33.8357 38.9955 33.6143 38.9517C33.394 38.9078 33.1799 38.842 32.9721 38.7564C32.7632 38.6697 32.5659 38.5643 32.379 38.44C32.1921 38.3147 32.0187 38.1727 31.859 38.0129C31.7002 37.8542 31.5582 37.6808 31.4329 37.4939C31.3076 37.306 31.2021 37.1086 31.1165 36.9008C31.0299 36.693 30.9651 36.479 30.9213 36.2576C30.8774 36.0373 30.8555 35.8138 30.8555 35.5893C30.8555 35.3637 30.8774 35.1413 30.9213 34.9199C30.9651 34.6996 31.0299 34.4845 31.1165 34.2767C31.2021 34.0689 31.3076 33.8716 31.4329 33.6846C31.5582 33.4967 31.7002 33.3244 31.859 33.1646C32.0187 33.0059 32.1921 32.8639 32.379 32.7386C32.5659 32.6133 32.7632 32.5078 32.9721 32.4211C33.1799 32.3355 33.394 32.2708 33.6143 32.2269C33.8357 32.1831 34.0581 32.1611 34.2836 32.1611C34.5092 32.1611 34.7316 32.1831 34.953 32.2269C35.1733 32.2708 35.3874 32.3355 35.5952 32.4211C35.804 32.5078 36.0014 32.6133 36.1883 32.7386C36.3752 32.8639 36.5485 33.0059 36.7083 33.1646C36.867 33.3244 37.009 33.4967 37.1343 33.6846C37.2596 33.8716 37.3651 34.0689 37.4507 34.2767C37.5374 34.4845 37.6021 34.6996 37.646 34.9199C37.6899 35.1413 37.7118 35.3637 37.7118 35.5893Z" fill="#9546E8"/>
<path d="M37.7118 35.5893C37.7118 35.8138 37.6899 36.0373 37.646 36.2576C37.6021 36.479 37.5374 36.693 37.4507 36.9008C37.3651 37.1086 37.2596 37.306 37.1343 37.4939C37.009 37.6808 36.867 37.8542 36.7083 38.0129C36.5485 38.1727 36.3752 38.3147 36.1883 38.44C36.0014 38.5643 35.804 38.6697 35.5952 38.7564C35.3874 38.842 35.1733 38.9078 34.953 38.9517C34.7316 38.9955 34.5092 39.0174 34.2836 39.0174C34.0581 39.0174 33.8357 38.9955 33.6143 38.9517C33.394 38.9078 33.1799 38.842 32.9721 38.7564C32.7632 38.6697 32.5659 38.5643 32.379 38.44C32.1921 38.3147 32.0187 38.1727 31.859 38.0129C31.7002 37.8542 31.5582 37.6808 31.4329 37.4939C31.3076 37.306 31.2021 37.1086 31.1165 36.9008C31.0299 36.693 30.9651 36.479 30.9213 36.2576C30.8774 36.0373 30.8555 35.8138 30.8555 35.5893C30.8555 35.3637 30.8774 35.1413 30.9213 34.9199C30.9651 34.6996 31.0299 34.4845 31.1165 34.2767C31.2021 34.0689 31.3076 33.8716 31.4329 33.6846C31.5582 33.4967 31.7002 33.3244 31.859 33.1646C32.0187 33.0059 32.1921 32.8639 32.379 32.7386C32.5659 32.6133 32.7632 32.5078 32.9721 32.4211C33.1799 32.3355 33.394 32.2708 33.6143 32.2269C33.8357 32.1831 34.0581 32.1611 34.2836 32.1611C34.5092 32.1611 34.7316 32.1831 34.953 32.2269C35.1733 32.2708 35.3874 32.3355 35.5952 32.4211C35.804 32.5078 36.0014 32.6133 36.1883 32.7386C36.3752 32.8639 36.5485 33.0059 36.7083 33.1646C36.867 33.3244 37.009 33.4967 37.1343 33.6846C37.2596 33.8716 37.3651 34.0689 37.4507 34.2767C37.5374 34.4845 37.6021 34.6996 37.646 34.9199C37.6899 35.1413 37.7118 35.3637 37.7118 35.5893Z" fill="black" fill-opacity="0.4"/>
</g>
<g id="Vector_10">
<path d="M34.2836 24.8304L47.0345 12.0784C48.3711 10.7418 49.1073 8.96458 49.1073 7.07455C49.1073 5.18661 48.3711 3.40936 47.0345 2.07277C45.699 0.735127 43.9217 0 42.0317 0C40.1417 0 38.3644 0.735127 37.0278 2.07277L35.0908 4.00978C34.6449 4.45462 33.9213 4.45462 33.4754 4.00978L31.5384 2.07277C30.2039 0.737215 28.4266 0 26.5345 0C24.6445 0 22.8672 0.737215 21.5317 2.07277C20.1961 3.40831 19.46 5.18452 19.46 7.07455C19.46 8.96667 20.1961 10.7418 21.5317 12.0784L34.2836 24.8304ZM29.7121 11.5908H33.1413V8.16158C33.1413 7.53087 33.6519 7.01921 34.2836 7.01921C34.9154 7.01921 35.426 7.53087 35.426 8.16158V11.5908H38.8552C39.4859 11.5908 39.9976 12.1014 39.9976 12.7331C39.9976 13.3649 39.4859 13.8755 38.8552 13.8755H35.426V17.3037C35.426 17.9354 34.9154 18.4471 34.2836 18.4471C33.6519 18.4471 33.1413 17.9354 33.1413 17.3037V13.8755H29.7121C29.0813 13.8755 28.5697 13.3649 28.5697 12.7331C28.5697 12.1014 29.0813 11.5908 29.7121 11.5908Z" fill="#9546E8"/>
<path d="M34.2836 24.8304L47.0345 12.0784C48.3711 10.7418 49.1073 8.96458 49.1073 7.07455C49.1073 5.18661 48.3711 3.40936 47.0345 2.07277C45.699 0.735127 43.9217 0 42.0317 0C40.1417 0 38.3644 0.735127 37.0278 2.07277L35.0908 4.00978C34.6449 4.45462 33.9213 4.45462 33.4754 4.00978L31.5384 2.07277C30.2039 0.737215 28.4266 0 26.5345 0C24.6445 0 22.8672 0.737215 21.5317 2.07277C20.1961 3.40831 19.46 5.18452 19.46 7.07455C19.46 8.96667 20.1961 10.7418 21.5317 12.0784L34.2836 24.8304ZM29.7121 11.5908H33.1413V8.16158C33.1413 7.53087 33.6519 7.01921 34.2836 7.01921C34.9154 7.01921 35.426 7.53087 35.426 8.16158V11.5908H38.8552C39.4859 11.5908 39.9976 12.1014 39.9976 12.7331C39.9976 13.3649 39.4859 13.8755 38.8552 13.8755H35.426V17.3037C35.426 17.9354 34.9154 18.4471 34.2836 18.4471C33.6519 18.4471 33.1413 17.9354 33.1413 17.3037V13.8755H29.7121C29.0813 13.8755 28.5697 13.3649 28.5697 12.7331C28.5697 12.1014 29.0813 11.5908 29.7121 11.5908Z" fill="black" fill-opacity="0.4"/>
</g>
</g>
</svg>
