<svg width="74" height="58" viewBox="0 0 74 58" fill="none" xmlns="http://www.w3.org/2000/svg">
<g id="Clip path group">
<mask id="mask0_27_562" style="mask-type:luminance" maskUnits="userSpaceOnUse" x="0" y="0" width="74" height="58">
<g id="2d828acc4c">
<path id="Vector" d="M0 0.576172H73.5482V57.3146H0V0.576172Z" fill="white"/>
</g>
</mask>
<g mask="url(#mask0_27_562)">
<g id="Group">
<path id="Vector_2" fill-rule="evenodd" clip-rule="evenodd" d="M19.0924 36.6318H25.5331C26.0928 36.6318 26.5439 37.084 26.5439 37.6426V56.3038C26.5439 56.8624 26.0928 57.3146 25.5331 57.3146H19.0924C18.5348 57.3146 18.0816 56.8624 18.0816 56.3038V37.6426C18.0816 37.084 18.5348 36.6318 19.0924 36.6318ZM38.167 21.9429C39.5757 21.7946 40.5938 23.6711 40.7525 25.182C40.7776 25.4943 40.8026 25.8065 40.8277 26.1187L40.811 26.6659C40.8663 27.3864 40.7087 29.1699 40.6836 30.4939C40.6596 31.817 40.4769 33.5942 40.6606 34.6071L40.7233 34.9841H50.9555C50.9555 34.9872 50.9555 34.9903 50.9555 34.9935L51.0871 34.9841C53.5045 34.9841 55.4665 36.3979 55.4665 38.1418C55.4665 39.2319 54.7001 40.1937 53.5347 40.7607L52.9061 41.0071L53.0408 41.0374C54.438 41.478 55.4185 42.5076 55.4185 43.7085C55.4185 44.9093 54.438 45.9389 53.0408 46.3785L52.6231 46.4746L52.8424 46.5581C53.8783 47.05 54.5602 47.8812 54.5602 48.8251C54.5602 49.9571 53.5797 50.9282 52.1804 51.3438L51.7042 51.4472L51.8692 51.5098C52.9051 52.0016 53.5859 52.8328 53.5859 53.7768C53.5859 55.2857 51.8431 56.5095 49.692 56.5095L49.242 56.4782C49.242 56.4886 49.242 56.4991 49.242 56.5095H32.9773C30.538 56.5095 28.5603 54.5359 28.5603 52.1008V39.3927C28.5603 39.0878 28.5749 38.9688 28.6334 38.6827L28.7461 38.1961L28.8015 37.8953C29.309 35.6346 30.8116 33.4752 31.6887 32.1334L33.2958 28.9412C33.8638 27.5712 34.2262 26.7108 34.3327 26.2628C34.3275 26.2095 35.4176 23.8256 35.4103 23.7713C36.0786 22.6101 37.0591 22.0588 38.167 21.9429ZM7.10481 16.2018L7.133 16.2049L7.16329 16.2018L7.21445 16.2143L7.36378 16.231L7.46924 16.2749L7.51205 16.2853L7.54025 16.3052L7.6029 16.3313L7.74387 16.4461L7.77102 16.466L7.77728 16.4743L7.80548 16.4973C7.86604 16.5631 7.91616 16.6393 7.95689 16.7239L9.4261 19.8816C9.4898 20.0184 9.58691 20.1353 9.70386 20.2241L9.83439 20.2993L9.89286 20.3317C9.96178 20.3599 10.0349 20.3807 10.109 20.3922L13.4964 20.8924C13.9904 20.9655 14.3318 21.4239 14.2577 21.9168C14.2295 22.1068 14.1428 22.2823 14.0081 22.418L13.4202 23.0153V23.0184L11.4926 24.9732C11.29 25.1789 11.1992 25.4702 11.2472 25.7553L11.8435 29.3234C11.8612 29.4247 11.8612 29.527 11.8435 29.6273L11.833 29.6575L11.8309 29.6816L11.7954 29.7588L11.7411 29.9134L11.7077 29.952L11.6879 29.9969L11.5918 30.0867L11.5072 30.1849L11.4665 30.2068L11.4362 30.235L11.3287 30.2757L11.1992 30.3415L11.1449 30.3457L11.1 30.3624H10.9496L10.8546 30.3707L10.8274 30.3613H10.7972C10.698 30.3446 10.6008 30.3102 10.511 30.2611L7.57366 28.6238C7.50474 28.5851 7.43374 28.5569 7.3596 28.5381L7.133 28.5089L6.9085 28.5381C6.83436 28.5569 6.76126 28.5851 6.69443 28.6238L3.75602 30.2611C3.66726 30.3102 3.57015 30.3446 3.47095 30.3613H3.44066L3.41456 30.3707L3.31849 30.3624H3.16603L3.12427 30.3457L3.06892 30.3415L2.93944 30.2757L2.83189 30.235L2.8016 30.2068L2.75984 30.1849L2.6763 30.0867L2.58023 29.9969L2.55935 29.952L2.52593 29.9134L2.47059 29.7588L2.43717 29.6816L2.43508 29.6575L2.42464 29.6273C2.40689 29.527 2.40689 29.4247 2.42464 29.3234L3.02089 25.7553C3.06892 25.4702 2.97703 25.1789 2.7755 24.9732L1.25303 23.4309L1.25512 23.4278L0.259987 22.418C0.125283 22.2823 0.036525 22.1068 0.0104197 21.9168C-0.0637196 21.4239 0.277739 20.9655 0.771652 20.8924L4.15908 20.3922C4.23427 20.3807 4.30632 20.3599 4.37523 20.3317L4.43162 20.2982L4.56319 20.2241C4.68119 20.1353 4.77935 20.0184 4.84304 19.8816L6.31225 16.7239C6.35089 16.6393 6.40205 16.5631 6.46262 16.4973L6.49081 16.4743L6.49603 16.466L6.52423 16.4461L6.66624 16.3313L6.72785 16.3052L6.755 16.2853L6.79886 16.2749L6.90537 16.231L7.05364 16.2143L7.10481 16.2018ZM66.3838 16.2018L66.4141 16.2049L66.4423 16.2018L66.4934 16.2143L66.6428 16.231L66.7493 16.2749L66.7931 16.2853L66.8192 16.3052L66.8829 16.3313L67.0229 16.4461L67.0511 16.466L67.0573 16.4743L67.0855 16.4973C67.145 16.5631 67.1962 16.6393 67.2359 16.7239L68.7051 19.8816C68.7688 20.0184 68.8659 20.1353 68.9849 20.2241L69.1155 20.2993L69.1719 20.3317C69.2408 20.3599 69.3139 20.3807 69.388 20.3922L72.7765 20.8924C73.2704 20.9655 73.6119 21.4239 73.5377 21.9168C73.5106 22.1068 73.4218 22.2823 73.2871 22.418L72.7003 23.0153L72.7013 23.0184L70.7726 24.9732C70.5701 25.1789 70.4782 25.4702 70.5262 25.7553L71.1224 29.3234C71.1402 29.4247 71.1402 29.527 71.1224 29.6273L71.112 29.6575V29.6816L71.0765 29.7588L71.0222 29.9134L70.9877 29.952L70.9669 29.9969L70.8718 30.0867L70.7883 30.1849L70.7455 30.2068L70.7152 30.235L70.6077 30.2757L70.4782 30.3415L70.4239 30.3457L70.3811 30.3624H70.2286L70.1336 30.3707L70.1064 30.3613H70.0761C69.978 30.3446 69.8798 30.3102 69.7921 30.2611L66.8537 28.6238C66.7858 28.5851 66.7138 28.5569 66.6386 28.5381L66.4141 28.5089L66.1875 28.5381C66.1133 28.5569 66.0423 28.5851 65.9734 28.6238L63.0371 30.2611C62.9463 30.3102 62.8491 30.3446 62.7499 30.3613H62.7197L62.6936 30.3707L62.5975 30.3624H62.4471L62.4033 30.3457L62.3479 30.3415L62.2195 30.2757L62.1109 30.235L62.0806 30.2068L62.0399 30.1849L61.9553 30.0867L61.8603 29.9969L61.8404 29.952L61.807 29.9134L61.7517 29.7588L61.7162 29.6816L61.7151 29.6575L61.7036 29.6273C61.6859 29.527 61.6859 29.4247 61.7036 29.3234L62.3009 25.7553C62.3479 25.4702 62.2581 25.1789 62.0545 24.9732L60.532 23.4309L60.5341 23.4278L59.539 22.418C59.4043 22.2823 59.3176 22.1068 59.2894 21.9168C59.2153 21.4239 59.5567 20.9655 60.0506 20.8924L63.4391 20.3922C63.5133 20.3807 63.5853 20.3599 63.6542 20.3317L63.7127 20.2982L63.8443 20.2241C63.9612 20.1353 64.0583 20.0184 64.122 19.8816L65.5912 16.7239C65.632 16.6393 65.681 16.5631 65.7416 16.4973L65.7698 16.4743L65.7771 16.466L65.8032 16.4461L65.9452 16.3313L66.0068 16.3052L66.035 16.2853L66.0779 16.2749L66.1844 16.231L66.3326 16.2143L66.3838 16.2018ZM53.0106 5.4349L53.0408 5.43803L53.0711 5.4349L53.1223 5.44743L53.2716 5.46309L53.376 5.508L53.4199 5.51844L53.4481 5.53828L53.5097 5.56438L53.6496 5.67925L53.6788 5.69909L53.6841 5.7064L53.7123 5.73041C53.7718 5.7962 53.823 5.87243 53.8626 5.95701L55.3318 9.11471C55.3955 9.2515 55.4926 9.36845 55.6117 9.45721L55.7422 9.53135L55.7986 9.56477C55.8675 9.59296 55.9406 9.61384 56.0168 9.62429L59.4032 10.1255C59.8971 10.1986 60.2386 10.657 60.1655 11.1499C60.1373 11.3399 60.0486 11.5154 59.9149 11.6511L59.327 12.2484L59.328 12.2515L57.4004 14.2063C57.1979 14.412 57.1049 14.7033 57.153 14.9884L57.7513 18.5565C57.7669 18.6578 57.7669 18.7601 57.7492 18.8604L57.7388 18.8906V18.9147L57.7033 18.9919L57.649 19.1465L57.6155 19.1851L57.5957 19.23L57.4996 19.3198L57.415 19.418L57.3722 19.4389L57.342 19.4681L57.2365 19.5088L57.1049 19.5746L57.0517 19.5788L57.0078 19.5955H56.8554L56.7603 19.6028L56.7332 19.5944H56.7039C56.6047 19.5777 56.5087 19.5433 56.4189 19.4942L53.4815 17.8569C53.4126 17.8182 53.3405 17.79 53.2664 17.7712L53.0408 17.742L52.8142 17.7712C52.7422 17.79 52.6691 17.8182 52.6002 17.8569L49.6638 19.4942C49.573 19.5433 49.478 19.5777 49.3767 19.5944H49.3485L49.3224 19.6028L49.2242 19.5955H49.0739L49.03 19.5788L48.9768 19.5746L48.8462 19.5088L48.7376 19.4681L48.7073 19.4389L48.6677 19.418L48.582 19.3198L48.487 19.23L48.4672 19.1851L48.4338 19.1465L48.3784 18.9919L48.3429 18.9147V18.8906L48.3304 18.8604C48.3147 18.7601 48.3126 18.6578 48.3304 18.5565L48.9287 14.9884C48.9768 14.7033 48.8849 14.412 48.6812 14.2063L47.1609 12.664V12.6609L46.1657 11.6511C46.031 11.5154 45.9444 11.3399 45.9162 11.1499C45.8441 10.657 46.1856 10.1986 46.6795 10.1255L50.0659 9.62429C50.1421 9.61384 50.2141 9.59296 50.281 9.56477L50.3395 9.53135L50.471 9.45721C50.589 9.36845 50.6851 9.2515 50.7509 9.11471L52.2201 5.95701C52.2587 5.87243 52.3099 5.7962 52.3684 5.73041L52.3986 5.7064L52.4039 5.69909L52.4321 5.67925L52.572 5.56438L52.6336 5.53828L52.6618 5.51844L52.7046 5.508L52.8111 5.46309L52.9594 5.44743L53.0106 5.4349ZM20.5595 5.4349L20.5898 5.43803L20.618 5.4349L20.6692 5.44743L20.8185 5.46309L20.9239 5.508L20.9668 5.51844L20.9949 5.53828L21.0566 5.56438L21.1986 5.67925L21.2268 5.69909L21.232 5.7064L21.2602 5.73041C21.3207 5.7962 21.3719 5.87243 21.4105 5.95701L22.8798 9.11471C22.9434 9.2515 23.0416 9.36845 23.1596 9.45721L23.2912 9.53135L23.3476 9.56477C23.4165 9.59296 23.4896 9.61384 23.5637 9.62429L26.9511 10.1255C27.4451 10.1986 27.7865 10.657 27.7124 11.1499C27.6863 11.3399 27.5975 11.5154 27.4628 11.6511L26.8749 12.2484L26.877 12.2515L24.9473 14.2063C24.7458 14.412 24.6539 14.7033 24.7019 14.9884L25.2982 18.5565C25.3159 18.6578 25.3159 18.7601 25.2982 18.8604L25.2877 18.8906L25.2856 18.9147L25.2522 18.9919L25.1969 19.1465L25.1634 19.1851L25.1426 19.23L25.0465 19.3198L24.964 19.418L24.9212 19.4389L24.8909 19.4681L24.7834 19.5088L24.6539 19.5746L24.5985 19.5788L24.5547 19.5955H24.4043L24.3082 19.6028L24.2821 19.5944H24.2519C24.1526 19.5777 24.0555 19.5433 23.9668 19.4942L21.0284 17.8569C20.9615 17.8182 20.8884 17.79 20.8143 17.7712L20.5898 17.742L20.3632 17.7712C20.2891 17.79 20.216 17.8182 20.1491 17.8569L17.2128 19.4942C17.122 19.5433 17.0248 19.5777 16.9256 19.5944H16.8954L16.8693 19.6028L16.7732 19.5955H16.6228L16.579 19.5788L16.5236 19.5746L16.3941 19.5088L16.2866 19.4681L16.2563 19.4389L16.2156 19.418L16.131 19.3198L16.0349 19.23L16.0161 19.1851L15.9817 19.1465L15.9274 18.9919L15.8919 18.9147L15.8898 18.8906L15.8793 18.8604C15.8616 18.7601 15.8616 18.6578 15.8793 18.5565L16.4756 14.9884C16.5236 14.7033 16.4338 14.412 16.2302 14.2063L14.7077 12.664L14.7098 12.6609L13.7147 11.6511C13.58 11.5154 13.4933 11.3399 13.4651 11.1499C13.391 10.657 13.7324 10.1986 14.2264 10.1255L17.6138 9.62429C17.689 9.61384 17.761 9.59296 17.8299 9.56477L17.8884 9.53135L18.02 9.45721C18.1359 9.36845 18.234 9.2515 18.2977 9.11471L19.767 5.95701C19.8077 5.87243 19.8568 5.7962 19.9173 5.73041L19.9455 5.7064L19.9528 5.69909L19.9789 5.67925L20.1209 5.56438L20.1825 5.53828L20.2107 5.51844L20.2536 5.508L20.3601 5.46309L20.5083 5.44743L20.5595 5.4349ZM36.7438 0.576172L36.7741 0.579305L36.8043 0.576172L36.8555 0.587658L37.0038 0.604366L37.1103 0.649267L37.1531 0.659709L37.1813 0.678505L37.2429 0.70461L37.3828 0.820518L37.411 0.839314L37.4163 0.847668L37.4445 0.871684C37.505 0.93747 37.5562 1.01265 37.5948 1.09828L39.064 4.25494C39.1298 4.39277 39.2259 4.50973 39.3439 4.59744L39.4754 4.67262L39.5329 4.70499C39.6008 4.73423 39.6728 4.75407 39.749 4.76556L43.1354 5.26678C43.6293 5.33883 43.9708 5.79829 43.8987 6.29116C43.8705 6.48016 43.7839 6.65559 43.6471 6.79238L43.0592 7.38967L43.0613 7.3928L41.1337 9.34653C40.93 9.55328 40.8382 9.84357 40.8862 10.1286L41.4845 13.6978C41.5023 13.798 41.5002 13.9014 41.4824 14.0006L41.472 14.0309V14.0559L41.4365 14.1332L41.3811 14.2877L41.3477 14.3264L41.3279 14.3702L41.2329 14.4611L41.1472 14.5592L41.1055 14.5801L41.0752 14.6083L40.9687 14.6501L40.8382 14.7148L40.7849 14.7201L40.741 14.7368L40.5886 14.7357L40.4925 14.7441L40.4664 14.7357H40.4382C40.3369 14.718 40.2419 14.6845 40.1511 14.6344L37.2147 12.9971C37.1458 12.9595 37.0727 12.9303 36.9986 12.9115L36.7741 12.8833L36.5485 12.9115C36.4744 12.9303 36.4023 12.9595 36.3334 12.9971L33.396 14.6344C33.3062 14.6845 33.2102 14.718 33.1099 14.7357H33.0817L33.0546 14.7441L32.9596 14.7357L32.8071 14.7368L32.7632 14.7201L32.71 14.7148L32.5784 14.6501L32.4719 14.6083L32.4427 14.5801L32.3999 14.5592L32.3153 14.4611L32.2192 14.3702L32.1994 14.3264L32.1659 14.2877L32.1116 14.1332L32.0761 14.0559V14.0309L32.0657 14.0006C32.048 13.9014 32.048 13.798 32.0636 13.6978L32.6619 10.1286C32.71 9.84357 32.6171 9.55328 32.4145 9.34653L30.8931 7.80422V7.80213L29.9 6.79238C29.7643 6.65559 29.6776 6.48016 29.6494 6.29116C29.5763 5.79829 29.9178 5.33883 30.4117 5.26678L33.7981 4.76556C33.8743 4.75407 33.9474 4.73423 34.0142 4.70499L34.0727 4.67262L34.2032 4.59744C34.3223 4.50973 34.4173 4.39277 34.4831 4.25494L35.9523 1.09828C35.9909 1.01265 36.0431 0.93747 36.1026 0.871684L36.1308 0.847668L36.1361 0.839314L36.1653 0.820518L36.3052 0.70461L36.3668 0.678505L36.395 0.659709L36.4378 0.649267L36.5433 0.604366L36.6926 0.587658L36.7438 0.576172Z" fill="#592A8B"/>
</g>
</g>
</g>
</svg>
