<svg width="108" height="100" viewBox="0 0 108 100" fill="none" xmlns="http://www.w3.org/2000/svg">
<mask id="mask0_27_604" style="mask-type:luminance" maskUnits="userSpaceOnUse" x="-1" y="1" width="109" height="99">
<path d="M-0.000244141 1.28613H107.403V99.0924H-0.000244141V1.28613Z" fill="white"/>
</mask>
<g mask="url(#mask0_27_604)">
<path d="M67.7187 65.5042C68.7395 65.5747 69.7785 66.0518 70.8712 67.1497L97.028 93.4385H86.3773L67.7187 65.5042ZM43.3237 44.8445C44.2778 44.8014 45.3913 45.1229 46.5036 45.7084C50.95 48.0388 52.9837 49.6294 53.9887 51.5886C55.165 53.8615 55.3781 57.555 55.3781 64.0704C55.3637 64.4115 55.4003 64.7265 55.4565 65.018L46.5101 70.1858C43.5302 71.9045 41.5396 72.6534 38.297 72.8089C39.4524 64.0273 39.9725 57.2623 40.4065 48.5786C40.5293 46.0077 41.7187 44.9177 43.3237 44.8445ZM60.1342 8.04871L64.9322 8.21339C64.8669 8.32187 64.795 8.42643 64.7309 8.55713C62.9639 12.4271 60.5904 14.5288 57.9019 15.8907C59.0795 13.8674 59.8846 11.3345 60.1342 8.04871ZM84.7998 1.58301C84.1162 1.58301 83.5686 1.98295 83.5686 2.48222V2.78936L53.6685 3.56572C50.2965 3.65198 50.4311 7.73634 53.6685 7.8422L56.6838 7.94284C55.8577 12.0978 53.9116 14.236 51.6087 15.9743C50.2886 16.9729 47.4525 18.4563 45.5129 18.4981L36.2541 18.685C34.2283 18.7268 32.6678 20.473 32.9305 22.4831C34.6648 35.506 34.3211 51.7938 31.6117 72.2378C31.5751 72.4443 31.5751 72.6443 31.5751 72.8429H29.808C24.2246 72.8429 22.8065 73.9761 18.4646 78.1114L0.769261 94.9782C-0.397885 96.0891 0.0138185 99.0625 2.09586 99.0625H105.754C107.314 99.0625 108.07 96.5531 106.509 94.9782L73.6577 61.9596C71.9677 60.2644 69.9641 59.5508 67.7762 59.6227C65.9804 59.6789 64.0552 60.2853 62.0725 61.2695C62.045 56.1605 61.8255 52.1532 59.9552 48.5172C58.0025 44.7399 54.1952 42.1299 48.7699 39.508L48.3281 24.9285C58.3162 23.845 66.5855 17.8368 69.1368 10.9855C69.5367 9.93078 69.4283 9.02634 69.0884 8.34147L83.5686 8.81853V9.14658C83.5686 9.63801 84.1162 10.038 84.7998 10.038C85.4847 10.038 86.0336 9.63801 86.0336 9.14658V2.48222C86.0336 1.98295 85.4847 1.58301 84.7998 1.58301Z" fill="#592A8B"/>
</g>
<path fill-rule="evenodd" clip-rule="evenodd" d="M46.7813 9.31225C45.3998 12.8477 41.3703 14.6004 37.7852 13.2385C34.2067 11.8844 32.4318 7.91377 33.8146 4.39142C35.2052 0.856003 39.2255 -0.896676 42.8054 0.45737C46.3892 1.81926 48.1641 5.78206 46.7813 9.31225Z" fill="#592A8B"/>
</svg>
