<svg width="64" height="56" viewBox="0 0 64 56" fill="none" xmlns="http://www.w3.org/2000/svg">
<g id="Group 39226">
<g id="Clip path group">
<mask id="mask0_27_526" style="mask-type:luminance" maskUnits="userSpaceOnUse" x="30" y="0" width="3" height="7">
<g id="3e4bd50561">
<path id="Vector" d="M30.7653 0.314453H32.3255V6.3895H30.7653V0.314453Z" fill="white"/>
</g>
</mask>
<g mask="url(#mask0_27_526)">
<g id="Group">
<path id="Vector_2" d="M31.5615 6.24392C31.1753 6.24392 30.8629 5.92928 30.8629 5.54225V1.03663C30.8629 0.65037 31.1753 0.334961 31.5615 0.334961C31.9478 0.334961 32.2602 0.65037 32.2602 1.03663V5.54225C32.2602 5.92928 31.9478 6.24392 31.5615 6.24392Z" fill="#592A8B"/>
</g>
</g>
</g>
<path id="Vector_3" d="M25.3896 7.33124C25.1046 7.33124 24.8365 7.15372 24.7329 6.87108L23.0751 2.31288C22.9448 1.951 23.1314 1.55027 23.4933 1.4177C23.8575 1.28438 24.2582 1.47408 24.3885 1.83596L26.0463 6.39339C26.1796 6.75527 25.9922 7.15601 25.6311 7.28933C25.5519 7.316 25.4711 7.33124 25.3896 7.33124Z" fill="#592A8B"/>
<path id="Vector_4" d="M19.614 10.1141C19.4152 10.1141 19.2156 10.028 19.0777 9.86341L16.0447 6.24764C15.7964 5.9528 15.836 5.5094 16.1308 5.26103C16.4264 5.01267 16.8691 5.05228 17.1174 5.34712L20.1504 8.96518C20.3965 9.26002 20.3591 9.70114 20.062 9.9495C19.9317 10.06 19.7717 10.1141 19.614 10.1141Z" fill="#592A8B"/>
<path id="Vector_5" d="M15.9244 13.9609C15.804 13.9609 15.6829 13.9312 15.5747 13.8672L11.2824 11.3889C10.948 11.1946 10.8322 10.7687 11.0264 10.4343C11.2184 10.0998 11.6466 9.98403 11.9811 10.1783L16.2734 12.6566C16.6078 12.8486 16.7236 13.2768 16.5293 13.6112C16.3991 13.8352 16.1652 13.9609 15.9244 13.9609Z" fill="#592A8B"/>
<path id="Vector_6" d="M47.8873 14.9156C47.6442 14.9156 47.4103 14.7906 47.2801 14.5667C47.0881 14.2314 47.2016 13.8033 47.5361 13.609L51.2112 11.488C51.5457 11.296 51.9731 11.4088 52.1651 11.744C52.3594 12.0784 52.2443 12.5066 51.9091 12.7009L48.237 14.8226C48.1265 14.8866 48.0054 14.9156 47.8873 14.9156Z" fill="#592A8B"/>
<path id="Vector_7" d="M43.8807 10.5125C43.723 10.5125 43.563 10.4584 43.4327 10.348C43.1379 10.0996 43.0982 9.65923 43.3466 9.36363L46.2866 5.85909C46.535 5.56349 46.9753 5.52464 47.2702 5.773C47.565 6.01908 47.6046 6.46248 47.3563 6.75732L44.417 10.2619C44.2791 10.4264 44.0795 10.5125 43.8807 10.5125Z" fill="#592A8B"/>
<path id="Vector_8" d="M37.7311 7.68343C37.6526 7.68343 37.5711 7.66819 37.4926 7.64153C37.1284 7.5082 36.941 7.10746 37.0743 6.7433L38.7222 2.21482C38.8548 1.85065 39.2532 1.664 39.6174 1.79656C39.9816 1.92684 40.169 2.33062 40.0357 2.6925L38.3878 7.22327C38.2842 7.50592 38.016 7.68343 37.7311 7.68343Z" fill="#592A8B"/>
<path id="Vector_9" d="M44.8672 16.7543C44.692 16.7543 44.5175 16.688 44.3819 16.5577C40.9284 13.2375 36.3877 11.4091 31.5956 11.4091C26.8043 11.4091 22.2629 13.2375 18.8094 16.5577C18.5313 16.8259 18.0887 16.8183 17.8205 16.5379C17.5554 16.2598 17.5622 15.8172 17.8403 15.549C21.5551 11.9774 26.4402 10.0088 31.5956 10.0088C36.7519 10.0088 41.6369 11.9774 45.3517 15.549C45.629 15.8172 45.6367 16.2598 45.3708 16.5379C45.2336 16.6804 45.0485 16.7543 44.8672 16.7543Z" fill="#592A8B"/>
<g id="Clip path group_2">
<mask id="mask1_27_526" style="mask-type:luminance" maskUnits="userSpaceOnUse" x="16" y="43" width="31" height="13">
<g id="e22c7eae76">
<path id="Vector_10" d="M16.9177 43.6416H46.3681V55.3148H16.9177V43.6416Z" fill="white"/>
</g>
</mask>
<g mask="url(#mask1_27_526)">
<g id="Group_2">
<path id="Vector_11" d="M31.5468 55.357C21.0011 55.357 16.9938 52.2982 16.9938 52.2982C17.7617 49.9745 19.0675 46.6917 20.7063 45.2175C24.4798 41.8219 26.3364 45.5253 31.5468 45.5253C36.7594 45.5253 38.616 41.8219 42.3895 45.2175C44.0991 46.7557 45.4476 50.2602 46.1973 52.593C46.1973 52.593 43.4889 55.357 31.5468 55.357Z" fill="#592A8B"/>
</g>
</g>
</g>
<path id="Vector_12" d="M40.4661 30.3638C40.4661 36.563 36.474 41.5859 31.547 41.5859C26.6224 41.5859 22.6302 36.563 22.6302 30.3638C22.6302 24.1668 26.6224 19.1416 31.547 19.1416C36.474 19.1416 40.4661 24.1668 40.4661 30.3638Z" fill="#592A8B"/>
<path id="Vector_13" d="M18.2487 26.8175C18.2487 31.6065 15.1617 35.4897 11.3562 35.4897C7.5507 35.4897 4.46594 31.6065 4.46594 26.8175C4.46594 22.0285 7.5507 18.1445 11.3562 18.1445C15.1617 18.1445 18.2487 22.0285 18.2487 26.8175Z" fill="#592A8B"/>
<path id="Vector_14" d="M58.6523 26.8175C58.6523 31.6065 55.5675 35.4897 51.762 35.4897C47.9543 35.4897 44.8695 31.6065 44.8695 26.8175C44.8695 22.0285 47.9543 18.1445 51.762 18.1445C55.5675 18.1445 58.6523 22.0285 58.6523 26.8175Z" fill="#592A8B"/>
<path id="Vector_15" d="M60.1402 38.2949C57.2231 35.671 55.7862 38.5333 51.7621 38.5333C47.7349 38.5333 46.2988 35.671 43.3839 38.2949C42.68 38.9272 41.3589 40.2734 40.6062 41.4962C41.7825 41.7697 42.9116 42.3944 44.0254 43.3963C44.6852 43.989 45.3168 44.7943 45.927 45.8007C55.2994 48.087 63.0825 43.9943 63.0825 43.9943C62.502 42.1903 61.4613 39.4834 60.1402 38.2949Z" fill="#592A8B"/>
<g id="Clip path group_3">
<mask id="mask2_27_526" style="mask-type:luminance" maskUnits="userSpaceOnUse" x="0" y="37" width="23" height="10">
<g id="ee81164907">
<path id="Vector_16" d="M0 37.0098H22.5738V46.3715H0V37.0098Z" fill="white"/>
</g>
</mask>
<g mask="url(#mask2_27_526)">
<g id="Group_3">
<path id="Vector_17" d="M19.0698 43.3963C20.1821 42.3967 21.3059 41.772 22.4769 41.4985C21.6952 40.2612 20.4305 38.9219 19.7342 38.2949C16.8193 35.671 15.3832 38.5333 11.356 38.5333C7.32962 38.5333 5.89504 35.671 2.97789 38.2949C1.71092 39.4339 0.702222 41.9686 0.109497 43.7658C0.109497 43.7658 7.73264 47.6147 17.2231 45.7123C17.8158 44.747 18.4329 43.9722 19.0698 43.3963Z" fill="#592A8B"/>
</g>
</g>
</g>
</g>
</svg>
