<svg xmlns="http://www.w3.org/2000/svg" width="30" height="30" viewBox="0 0 24 25" fill="none">
            <path d="M14.0468 10.151V12.8686H16.4833C16.6707 12.8686 16.7644 13.056 16.7644 13.2434L16.3896 15.0239C16.3896 15.1176 16.2022 15.2113 16.1085 15.2113H14.0468V22.0522H11.2355V15.305H9.64246C9.45504 15.305 9.36133 15.2113 9.36133 15.0239V13.2434C9.36133 13.056 9.45504 12.9623 9.64246 12.9623H11.2355V9.86989C11.2355 8.27682 12.4538 7.05859 14.0468 7.05859H16.577C16.7644 7.05859 16.8581 7.1523 16.8581 7.33972V9.58876C16.8581 9.77618 16.7644 9.86989 16.577 9.86989H14.328C14.1405 9.86989 14.0468 9.9636 14.0468 10.151Z" stroke="white" strokeWidth="1.40565" strokeMiterlimit="10" strokeLinecap="round"/>
            <path d="M14.9841 22.0515H9.36146C4.67596 22.0515 2.80176 20.1773 2.80176 15.4918V9.86927C2.80176 5.18377 4.67596 3.30957 9.36146 3.30957H14.9841C19.6696 3.30957 21.5438 5.18377 21.5438 9.86927V15.4918C21.5438 20.1773 19.6696 22.0515 14.9841 22.0515Z" stroke="white" strokeWidth="1.40565" strokeLinecap="round" strokeLinejoin="round"/>
            </svg>