<svg xmlns="http://www.w3.org/2000/svg" width="30" height="30" viewBox="0 0 24 24" fill="none">
            <path d="M9.36146 20.9158H14.9841C19.6696 20.9158 21.5438 19.0416 21.5438 14.3561V8.73353C21.5438 4.04803 19.6696 2.17383 14.9841 2.17383H9.36146C4.67596 2.17383 2.80176 4.04803 2.80176 8.73353V14.3561C2.80176 19.0416 4.67596 20.9158 9.36146 20.9158Z" stroke="white" strokeWidth="1.40565" strokeLinecap="round" strokeLinejoin="round"/>
            <path d="M12.1734 14.8244C13.9848 14.8244 15.4533 13.3559 15.4533 11.5445C15.4533 9.73309 13.9848 8.26465 12.1734 8.26465C10.362 8.26465 8.89355 9.73309 8.89355 11.5445C8.89355 13.3559 10.362 14.8244 12.1734 14.8244Z" stroke="white" strokeWidth="1.40565" strokeLinecap="round" strokeLinejoin="round"/>
            <path d="M17.4551 6.85938H17.4659" stroke="white" strokeWidth="1.8742" strokeLinecap="round" strokeLinejoin="round"/>
            </svg>