<svg xmlns="http://www.w3.org/2000/svg" width="30" height="30" viewBox="0 0 24 24" fill="none">
            <path d="M9.36146 21.7156H14.9841C19.6696 21.7156 21.5438 19.8414 21.5438 15.1559V9.53333C21.5438 4.84783 19.6696 2.97363 14.9841 2.97363H9.36146C4.67596 2.97363 2.80176 4.84783 2.80176 9.53333V15.1559C2.80176 19.8414 4.67596 21.7156 9.36146 21.7156Z" stroke="white" strokeWidth="1.40565" strokeLinecap="round" strokeLinejoin="round"/>
            <path d="M14.7184 13.0323C14.848 13.3413 14.8529 13.7628 14.8529 14.1518V17.5096C14.8529 17.649 14.9651 17.763 15.1052 17.763H17.3556C17.4957 17.763 17.6079 17.649 17.6079 17.5096V13.7235C17.6079 12.7621 17.4972 11.8883 17.0693 11.2419C16.629 10.5765 15.8761 10.1837 14.6531 10.1837C14.1154 10.1837 13.6516 10.3096 13.2769 10.5071C13.0723 10.6139 12.8945 10.7395 12.7427 10.8772V10.4371C12.7427 10.2977 12.6306 10.1837 12.4905 10.1837H10.4248V10.1769H10.3311C10.191 10.1769 10.0789 10.2908 10.0789 10.4304V17.5061C10.0789 17.6457 10.191 17.7596 10.3311 17.7596H12.5816C12.7217 17.7596 12.8338 17.6457 12.8338 17.5061V14.0906C12.8338 13.6667 12.8752 13.2716 13.0369 12.996C13.1114 12.8689 13.2135 12.7648 13.3553 12.6917C13.4979 12.6181 13.6857 12.5734 13.9344 12.5734C14.1686 12.5734 14.3361 12.6246 14.4575 12.7041C14.5787 12.7836 14.6616 12.8962 14.7184 13.0323ZM12.5983 12.7453C12.376 13.1282 12.3258 13.6186 12.3258 14.0974V17.2595H10.5834V10.6906H12.2347V11.5519C12.2347 11.6913 12.3469 11.8053 12.4871 11.8053H12.5175C12.6149 11.8053 12.6952 11.7505 12.7373 11.6762C12.8799 11.4209 13.1365 11.151 13.5054 10.9586C13.812 10.7961 14.1955 10.6906 14.6497 10.6906C15.7092 10.6906 16.3082 11.0127 16.6464 11.5253C16.9978 12.0578 17.1 12.8283 17.1 13.727V17.2595H15.3541V14.1551C15.3541 13.7444 15.352 13.2491 15.1815 12.8412C15.0903 12.6213 14.9536 12.4265 14.7478 12.2873C14.5418 12.1482 14.2745 12.0699 13.9311 12.0699C13.5934 12.0699 13.3193 12.1351 13.0988 12.2541C12.8778 12.3732 12.7157 12.5434 12.5983 12.7453ZM8.6061 9.48358C8.86568 9.22209 9.02467 8.86559 9.02467 8.46936C9.02467 8.07295 8.86219 7.7131 8.6061 7.45513C8.34649 7.19363 7.99227 7.0332 7.59827 7.0332C7.20411 7.0332 6.84655 7.19716 6.59045 7.45513C6.33086 7.71662 6.17188 8.07312 6.17188 8.46936C6.17188 8.86576 6.33436 9.22561 6.59045 9.48358C6.85005 9.74506 7.20428 9.90549 7.59827 9.90549C7.99244 9.90549 8.35 9.74159 8.6061 9.48358ZM8.52011 8.46936C8.52011 8.72557 8.41599 8.95704 8.25041 9.12383C8.08484 9.29061 7.85537 9.39521 7.60165 9.39521C7.34793 9.39521 7.11845 9.29061 6.95288 9.12383C6.78731 8.95704 6.68318 8.72557 6.68318 8.46936C6.68318 8.21313 6.78731 7.98166 6.95288 7.81488C7.11845 7.6481 7.34793 7.54349 7.60165 7.54349C7.85537 7.54349 8.08484 7.6481 8.25041 7.81488C8.41599 7.98166 8.52011 8.21313 8.52011 8.46936ZM8.77239 10.1802H6.43091C6.29078 10.1802 6.17862 10.2943 6.17862 10.4337V17.5096C6.17862 17.649 6.29078 17.763 6.43091 17.763H8.77239C8.91251 17.763 9.02467 17.649 9.02467 17.5096V10.4337C9.02467 10.2943 8.91251 10.1802 8.77239 10.1802ZM6.68318 17.2561V10.6871H8.52011V17.2561H6.68318Z" fill="white" stroke="white" strokeWidth="0.18742"/>
            </svg>