<svg width="62" height="32" viewBox="0 0 62 32" fill="none" xmlns="http://www.w3.org/2000/svg">
<path d="M9.88625 8.81252C10.7744 9.32959 11.3209 10.2738 11.708 11.8025C11.9357 12.7017 12.9377 15.7367 12.9377 15.7367H10.3189C9.81793 13.7583 9.40804 12.2971 9.31695 11.9823C8.67934 9.75672 7.54075 9.50943 5.49128 9.50943C4.94475 9.50943 3.80616 9.48695 3.23686 9.48695V15.7367H0.731953V0H6.12889C9.63576 0 12.5506 0.71939 12.5506 4.40626C12.5506 6.49699 11.3892 7.39623 9.88625 8.00321C9.22587 8.27298 8.26945 8.18306 7.54075 8.18306V8.63268C8.26945 8.63268 9.27141 8.43035 9.88625 8.81252ZM3.23686 1.84344V7.35126H5.99226C8.0645 7.35126 9.97734 6.74428 9.97734 4.45122C9.97734 2.18065 8.2239 1.84344 5.99226 1.84344H3.23686Z" fill="#9546E8"/>
<path d="M15.2899 2.4729V0H17.9087V2.4729H15.2899ZM15.4266 15.7367V4.49619H17.8176V15.7367H15.4266Z" fill="#9546E8"/>
<path d="M20.1251 10.0715C20.1251 6.54195 22.6527 4.15897 26.4101 4.15897C30.1675 4.15897 32.6951 6.65436 32.6951 10.0715C32.6951 13.511 30.1675 16.0963 26.4101 16.0963C22.6527 16.0963 20.1251 13.6234 20.1251 10.0715ZM22.63 10.0715C22.63 12.1397 23.7913 13.8258 26.4101 13.8258C29.0061 13.8258 30.1902 12.1397 30.1902 10.0715C30.1902 8.02569 29.0289 6.42955 26.4101 6.42955C23.7913 6.42955 22.63 8.02569 22.63 10.0715Z" fill="#9546E8"/>
<path d="M45.0206 12.2746C45.0206 14.5002 43.2899 16.0963 39.8058 16.0963C36.3217 16.0963 34.0901 14.118 34.0901 12.1397H36.5039C36.5039 12.8591 37.9158 13.8707 40.0108 13.8707C41.7642 13.8707 42.5612 13.3087 42.5612 12.4544C42.5612 9.84665 34.2039 11.6676 34.2039 7.44119C34.2039 5.71016 35.9802 4.15897 39.3504 4.15897C42.8573 4.15897 44.7246 5.80008 44.7246 7.53111H42.3335C42.3335 6.7218 41.1038 6.15978 39.2365 6.15978C37.8019 6.15978 36.6405 6.60939 36.6405 7.44119C36.6405 9.35207 45.0206 7.68848 45.0206 12.2746Z" fill="#9546E8"/>
<path d="M0 31.7945V22.8021H1.47041V31.7945H0Z" fill="#9546E8"/>
<path d="M5.21405 25.7182C5.7866 25.2557 6.35915 25.1786 7.244 25.1786C8.58429 25.1786 9.61228 25.9237 9.61228 27.3882V31.7945H8.24596V28.3517C8.24596 27.0542 7.75149 26.489 6.7235 26.489C5.60442 26.489 4.65451 27.067 4.65451 28.3517V31.7945H3.2882V25.3713H4.65451V25.4998C4.65451 25.9751 4.42029 26.5403 4.23811 26.9771L4.47234 27.067C4.65451 26.6303 4.83669 26.0136 5.21405 25.7182Z" fill="#9546E8"/>
<path d="M12.141 24.8189C12.18 23.5857 12.9868 22.8021 13.8977 22.8021H15.303V23.9326H14.3661C13.7545 23.9326 13.5073 24.2666 13.5073 24.8189V25.3713H15.1338V26.489H13.5073V31.7559H12.141V26.489H10.8527V25.3713H12.141V24.8189Z" fill="#9546E8"/>
<path d="M16.8644 30.2401V22.4809H18.2437V29.8418C18.2437 30.3685 18.4389 30.5227 19.0245 30.5227H19.8573V31.7945H18.9594C17.5541 31.7945 16.8644 31.2806 16.8644 30.2401Z" fill="#9546E8"/>
<path d="M25.3601 31.3577C24.8006 31.9101 24.3061 31.9872 23.4083 31.9872C22.1721 31.9872 20.9749 31.2292 20.9749 29.7776V25.3713H22.3412V28.8912C22.3412 30.2272 22.9398 30.7668 23.8117 30.7668C24.7616 30.7668 25.7115 30.2144 25.7115 28.8912V25.3713H27.0778V31.7945H25.7115L25.7245 31.499C25.7245 31.1778 25.9327 30.7925 26.0628 30.497L25.8156 30.3942C25.6985 30.7025 25.6074 31.1393 25.3601 31.3577Z" fill="#9546E8"/>
<path d="M32.2526 32C29.7412 32 28.3749 30.4585 28.3749 28.5444C28.3749 26.6303 29.8583 25.1786 31.9663 25.1786C34.1264 25.1786 35.4667 26.733 35.4537 28.493C35.4537 28.6214 35.4537 28.9297 35.4537 29.0325H29.9624C29.9624 29.8033 30.6651 30.8181 32.1355 30.8181C33.0724 30.8181 33.6449 30.3557 33.7881 29.9574H35.3105C35.1284 30.6255 34.2045 32 32.2526 32ZM29.9754 28.0434H33.8922C33.8922 27.0799 33.1635 26.2963 31.9924 26.2963C30.7952 26.2963 29.9754 27.1698 29.9754 28.0434Z" fill="#9546E8"/>
<path d="M38.6094 25.7182C39.182 25.2557 39.7545 25.1786 40.6394 25.1786C41.9797 25.1786 43.0076 25.9237 43.0076 27.3882V31.7945H41.6413V28.3517C41.6413 27.0542 41.1469 26.489 40.1189 26.489C38.9998 26.489 38.0499 27.067 38.0499 28.3517V31.7945H36.6836V25.3713H38.0499V25.4998C38.0499 25.9751 37.8157 26.5403 37.6335 26.9771L37.8677 27.067C38.0499 26.6303 38.2321 26.0136 38.6094 25.7182Z" fill="#9546E8"/>
<path d="M44.2611 28.5444C44.2611 26.5147 45.6665 25.1786 47.7355 25.1786C49.8175 25.1786 50.8585 26.5147 51.0016 27.5295H49.5572C49.4791 27.2597 48.9456 26.4504 47.7094 26.4504C46.3822 26.4504 45.6144 27.2983 45.6144 28.5315C45.6144 29.7648 46.4472 30.7154 47.8005 30.7154C49.0237 30.7154 49.5182 29.9061 49.5962 29.6363H51.0406C50.8454 30.6897 49.8695 31.9872 47.8265 32C45.7185 31.9872 44.2611 30.5741 44.2611 28.5444Z" fill="#9546E8"/>
<path d="M52.2233 24.2152V22.8021H53.7198V24.2152H52.2233ZM52.3014 31.7945V25.3713H53.6677V31.7945H52.3014Z" fill="#9546E8"/>
<path d="M60.2954 31.1521C59.8139 31.6788 59.1112 32 58.2264 32C56.2875 32 54.9082 30.4585 54.9082 28.5444C54.9082 26.6303 56.2875 25.1786 58.2264 25.1786C59.1112 25.1786 59.8009 25.4741 60.2824 25.9751C60.5556 26.2577 60.6337 26.7844 60.7508 27.1441L60.998 27.067C60.8809 26.6945 60.6597 26.2449 60.6467 25.8595L60.6337 25.3713H62V31.7945H60.6337L60.6467 31.2678C60.6597 30.8824 60.8809 30.4199 60.998 30.0474L60.7508 29.9703C60.6337 30.3428 60.5556 30.8567 60.2954 31.1521ZM56.2745 28.5444C56.2745 29.7391 57.0422 30.7282 58.2914 30.7282C59.5276 30.7282 60.2693 29.6877 60.3214 28.5444C60.3214 27.2726 59.6057 26.4376 58.2914 26.4376C57.0292 26.4376 56.2745 27.3497 56.2745 28.5444Z" fill="#9546E8"/>
</svg>
