<svg xmlns="http://www.w3.org/2000/svg" width="30" height="30" viewBox="0 0 24 19" fill="none">
                <g clipPath="url(#clip0_40_1188)">
                <path d="M8.26631 18.5257C5.81711 18.5257 3.43537 17.8285 1.3775 16.5083C1.18633 16.3846 1.10312 16.1462 1.17959 15.9303C1.25605 15.7144 1.47421 15.5772 1.69911 15.6109C3.42413 15.8111 5.22561 15.4602 6.73696 14.5966C5.2436 14.1468 4.02687 12.9908 3.53658 11.4569C3.4826 11.2905 3.52084 11.1106 3.63779 10.9824C3.70751 10.9037 3.80197 10.8519 3.90317 10.8294C2.73592 9.93657 1.99823 8.53318 1.99823 6.99258C1.99823 6.81941 2.09045 6.63274 2.24113 6.54277C2.39182 6.45506 2.57624 6.42807 2.72692 6.50904C2.76966 6.53378 2.81464 6.55627 2.85737 6.57876C2.32659 5.79609 2.03422 4.85824 2.03422 3.88216C2.03422 3.03427 2.25912 2.19763 2.68644 1.46444C2.76741 1.325 2.91135 1.23504 3.07103 1.22154C3.23071 1.2103 3.38589 1.27552 3.48935 1.39922C5.47075 3.83043 8.34053 5.37327 11.4352 5.69039C11.4217 5.54195 11.415 5.39127 11.415 5.24283C11.415 2.59121 13.5741 0.432129 16.2257 0.432129C17.4582 0.432129 18.6501 0.908925 19.5385 1.75232C20.3572 1.56565 21.1398 1.25078 21.873 0.816715C22.0484 0.715508 22.2689 0.729002 22.4285 0.854949C22.5882 0.983144 22.6512 1.19456 22.5905 1.38797C22.4353 1.87602 22.2036 2.33032 21.9068 2.73965C22.1114 2.66993 22.3093 2.58896 22.5073 2.5035C22.7052 2.41354 22.9413 2.46751 23.0808 2.63619C23.2202 2.80262 23.2337 3.04327 23.1122 3.22319C22.5432 4.07108 21.8483 4.81101 21.0476 5.425C21.0499 5.53071 21.0521 5.63866 21.0521 5.74437C21.0521 12.0259 16.2684 18.5257 8.26631 18.5257ZM3.63329 16.596C5.09067 17.2212 6.66274 17.5451 8.26856 17.5451C15.6567 17.5451 20.0738 11.5446 20.0738 5.73987C20.0738 5.55994 20.0693 5.38002 20.0625 5.2001C20.0558 5.03592 20.1323 4.87848 20.265 4.78178C20.6181 4.52763 20.9487 4.2465 21.2545 3.94064C20.9352 4.01485 20.6113 4.07108 20.283 4.10931C20.0558 4.1408 19.8354 4.00136 19.7612 3.78095C19.687 3.5628 19.7747 3.32215 19.9726 3.20295C20.3617 2.96905 20.7035 2.67218 20.9824 2.32807C20.4944 2.51474 19.9906 2.66093 19.4755 2.76214C19.3114 2.79587 19.1404 2.7419 19.0235 2.6182C18.3015 1.84903 17.2827 1.40822 16.2257 1.40822C14.1138 1.40822 12.3956 3.12648 12.3956 5.23833C12.3956 5.53071 12.4293 5.82533 12.4945 6.11321C12.5283 6.26164 12.4923 6.41908 12.3933 6.53828C12.2944 6.65523 12.1482 6.73619 11.993 6.7137C8.64865 6.54502 5.49774 5.05841 3.23521 2.60021C3.09127 3.00953 3.0148 3.4436 3.0148 3.87991C3.0148 5.16636 3.65128 6.3561 4.71732 7.06905C4.8995 7.1905 4.97821 7.41765 4.91299 7.62456C4.84552 7.83148 4.63861 7.95742 4.4317 7.96642C3.9639 7.95067 3.50059 7.86746 3.05753 7.71902C3.36115 9.23713 4.5284 10.4404 6.05101 10.7462C6.27366 10.7912 6.43784 10.9824 6.44459 11.2095C6.45133 11.4367 6.3029 11.6391 6.08474 11.6998C5.66192 11.8145 5.21886 11.8797 4.7848 11.8707C5.44152 13.0312 6.67399 13.7869 8.0504 13.8139C8.25731 13.8184 8.43949 13.9534 8.50471 14.149C8.56993 14.3447 8.50471 14.5628 8.34278 14.691C6.96412 15.7728 5.35155 16.4206 3.63329 16.596Z" fill="white"/>
                 </g>
                <defs>
            <clipPath id="clip0_40_1188">
            <rect width="22.4904" height="18.742" fill="white" transform="translate(0.927734 0.106934)"/>
            </clipPath>
            </defs>
            </svg>